<?xml version="1.0" ?><svg id="Layer_1" style="enable-background:new 0 0 128 128;" version="1.1" viewBox="0 0 128 128" xml:space="preserve" xmlns="http://www.w3.org/2000/svg" xmlns:xlink="http://www.w3.org/1999/xlink"><style type="text/css">
	.st0{fill:#581166;}
	.st1{fill:#E83A3A;}
	.st2{fill:#FF5855;}
	.st3{opacity:0.5;}
	.st4{fill:#FFDA8E;}
	.st5{fill:#FFFFFF;}
	.st6{fill:#EABA65;}
	.st7{fill:#E6E6E6;}
	.st8{fill:#460A54;}
	.st9{fill:none;}
	.st10{fill:none;stroke:#581166;stroke-width:2;stroke-linecap:round;stroke-linejoin:round;stroke-miterlimit:10;}
	.st11{fill:#F2F2F2;}
</style><g><g><g><g><g><g><g><polyline class="st2" points="45.4,20.5 27.4,44.3 37.6,44.3 19.9,67 35.4,67 16.8,91.9 47.1,91.9        "/></g></g></g><g><g><g><polyline class="st2" points="45.5,20.5 63.5,44.3 53.3,44.3 71,67 55.5,67 74.1,91.9 43.8,91.9        "/></g></g></g></g><g><g><g><g><path class="st0" d="M47.1,93.8H16.8c-0.7,0-1.4-0.4-1.7-1c-0.3-0.6-0.3-1.4,0.2-2l16.4-22H19.9c-0.7,0-1.4-0.4-1.7-1.1         c-0.3-0.6-0.2-1.4,0.2-2l15.4-19.6h-6.4c-0.7,0-1.4-0.4-1.7-1c-0.3-0.6-0.2-1.4,0.2-2L44,19.3c0.6-0.8,1.8-1,2.6-0.4         c0.8,0.6,1,1.8,0.4,2.6L31.2,42.4h6.5c0.7,0,1.4,0.4,1.7,1.1c0.3,0.6,0.2,1.4-0.2,2L23.7,65.1h11.7c0.7,0,1.4,0.4,1.7,1         c0.3,0.6,0.3,1.4-0.2,2l-16.4,22h26.6c1,0,1.9,0.8,1.9,1.9S48.1,93.8,47.1,93.8z"/></g></g></g><g><g><g><path class="st0" d="M74.1,93.8H43.8c-1,0-1.9-0.8-1.9-1.9s0.8-1.9,1.9-1.9h26.6L54,68.1c-0.4-0.6-0.5-1.3-0.2-2         c0.3-0.6,1-1,1.7-1h11.7L51.8,45.5c-0.4-0.6-0.5-1.3-0.2-2c0.3-0.6,1-1.1,1.7-1.1h6.5L44,21.6c-0.6-0.8-0.5-2,0.4-2.6         c0.8-0.6,2-0.5,2.6,0.4L65,43.2c0.4,0.6,0.5,1.3,0.2,2c-0.3,0.6-1,1-1.7,1h-6.4l15.4,19.6c0.4,0.6,0.5,1.3,0.2,2         c-0.3,0.6-1,1.1-1.7,1.1H59.3l16.4,22c0.4,0.6,0.5,1.3,0.2,2C75.5,93.4,74.8,93.8,74.1,93.8z"/></g></g></g></g></g><g><g><g><rect class="st4" height="22.5" width="5.1" x="42.9" y="91.9"/></g></g></g><g><g><g><path class="st0" d="M48,116.3h-5.1c-1,0-1.9-0.8-1.9-1.9V91.9c0-1,0.8-1.9,1.9-1.9H48c1,0,1.9,0.8,1.9,1.9v22.5       C49.9,115.4,49,116.3,48,116.3z M44.8,112.5h1.4V93.8h-1.4V112.5z"/></g></g></g></g><g><g><g><g><g><g><polyline class="st2" points="86,20.5 67.9,44.3 78.2,44.3 60.4,67 75.9,67 57.3,91.9 87.6,91.9        "/></g></g></g><g><g><g><polyline class="st2" points="86,20.5 104.1,44.3 93.8,44.3 111.6,67 96.1,67 114.7,91.9 84.4,91.9        "/></g></g></g></g><g><g><g><g><path class="st0" d="M87.6,93.8H57.3c-0.7,0-1.4-0.4-1.7-1c-0.3-0.6-0.3-1.4,0.2-2l16.4-22H60.4c-0.7,0-1.4-0.4-1.7-1.1         c-0.3-0.6-0.2-1.4,0.2-2l15.4-19.6h-6.4c-0.7,0-1.4-0.4-1.7-1c-0.3-0.6-0.2-1.4,0.2-2l18.1-23.8c0.6-0.8,1.8-1,2.6-0.4         c0.8,0.6,1,1.8,0.4,2.6L71.7,42.4h6.5c0.7,0,1.4,0.4,1.7,1.1c0.3,0.6,0.2,1.4-0.2,2L64.2,65.1h11.7c0.7,0,1.4,0.4,1.7,1         c0.3,0.6,0.3,1.4-0.2,2L61,90.1h26.6c1,0,1.9,0.8,1.9,1.9S88.6,93.8,87.6,93.8z"/></g></g></g><g><g><g><path class="st0" d="M114.7,93.8H84.4c-1,0-1.9-0.8-1.9-1.9s0.8-1.9,1.9-1.9h26.6l-16.4-22c-0.4-0.6-0.5-1.3-0.2-2         c0.3-0.6,1-1,1.7-1h11.7L92.3,45.5c-0.4-0.6-0.5-1.3-0.2-2c0.3-0.6,1-1.1,1.7-1.1h6.5L84.5,21.6c-0.6-0.8-0.5-2,0.4-2.6         c0.8-0.6,2-0.5,2.6,0.4l18.1,23.8c0.4,0.6,0.5,1.3,0.2,2c-0.3,0.6-1,1-1.7,1h-6.4l15.4,19.6c0.4,0.6,0.5,1.3,0.2,2         c-0.3,0.6-1,1.1-1.7,1.1H99.8l16.4,22c0.4,0.6,0.5,1.3,0.2,2C116,93.4,115.4,93.8,114.7,93.8z"/></g></g></g></g></g><g><g><g><rect class="st4" height="22.5" width="5.1" x="83.4" y="91.9"/></g></g></g><g><g><g><path class="st0" d="M88.5,116.3h-5.1c-1,0-1.9-0.8-1.9-1.9V91.9c0-1,0.8-1.9,1.9-1.9h5.1c1,0,1.9,0.8,1.9,1.9v22.5       C90.4,115.4,89.6,116.3,88.5,116.3z M85.3,112.5h1.4V93.8h-1.4V112.5z"/></g></g></g></g><g class="st3"><g><g><path class="st0" d="M82.7,28l8.2,9.9l-7.3,0.1l19.7,26.6L86,64.9l19.9,27H88.5c0,0-15.1-6.4-15.1-6.8s-2.9-73.6-2.9-73.6"/></g></g></g><g class="st3"><g><g><path class="st0" d="M49.7,28L41.5,38l7.3,0.1L29.1,64.7l17.3,0.2l-19.9,27h17.4c0,0,15.1-6.4,15.1-6.8s2.9-73.6,2.9-73.6"/></g></g></g><g><g><g><g><g><g><polyline class="st2" points="66.5,6.2 45,34.7 57.2,34.7 36,61.8 54.5,61.8 32.3,91.6 68.5,91.6        "/></g></g></g><g><g><g><polyline class="st2" points="66.5,6.2 88.1,34.7 75.9,34.7 97.1,61.8 78.6,61.8 100.8,91.6 64.6,91.6        "/></g></g></g></g><g><g><g><g><path class="st0" d="M68.5,93.5H32.3c-0.7,0-1.4-0.4-1.7-1c-0.3-0.6-0.3-1.4,0.2-2l20-26.8H36c-0.7,0-1.4-0.4-1.7-1.1         c-0.3-0.6-0.2-1.4,0.2-2l18.9-24.1H45c-0.7,0-1.4-0.4-1.7-1s-0.2-1.4,0.2-2L65,5.1c0.6-0.8,1.8-1,2.6-0.4         c0.8,0.6,1,1.8,0.4,2.6L48.7,32.8h8.5c0.7,0,1.4,0.4,1.7,1.1c0.3,0.6,0.2,1.4-0.2,2L39.8,59.9h14.7c0.7,0,1.4,0.4,1.7,1         c0.3,0.6,0.3,1.4-0.2,2L36,89.7h32.5c1,0,1.9,0.8,1.9,1.9S69.5,93.5,68.5,93.5z"/></g></g></g><g><g><g><path class="st0" d="M100.8,93.5H64.6c-1,0-1.9-0.8-1.9-1.9s0.8-1.9,1.9-1.9h32.5l-20-26.8c-0.4-0.6-0.5-1.3-0.2-2         c0.3-0.6,1-1,1.7-1h14.7L74.4,35.9c-0.4-0.6-0.5-1.3-0.2-2c0.3-0.6,1-1.1,1.7-1.1h8.5L65.1,7.3c-0.6-0.8-0.5-2,0.4-2.6         c0.8-0.6,2-0.5,2.6,0.4l21.6,28.5c0.4,0.6,0.5,1.3,0.2,2c-0.3,0.6-1,1-1.7,1h-8.4l18.9,24.1c0.4,0.6,0.5,1.3,0.2,2         c-0.3,0.6-1,1.1-1.7,1.1H82.3l20,26.8c0.4,0.6,0.5,1.3,0.2,2C102.2,93.1,101.5,93.5,100.8,93.5z"/></g></g></g></g></g><g><g><g><rect class="st4" height="22.8" width="6.1" x="63.5" y="91.6"/></g></g></g><g><g><g><path class="st0" d="M69.6,116.3h-6.1c-1,0-1.9-0.8-1.9-1.9V91.6c0-1,0.8-1.9,1.9-1.9h6.1c1,0,1.9,0.8,1.9,1.9v22.8       C71.5,115.4,70.6,116.3,69.6,116.3z M65.4,112.5h2.4v-19h-2.4V112.5z"/></g></g></g></g><g><g><g><path class="st0" d="M122.4,116.3H10.7c-1,0-1.9-0.8-1.9-1.9s0.8-1.9,1.9-1.9h111.8c1,0,1.9,0.8,1.9,1.9      S123.5,116.3,122.4,116.3z"/></g></g></g><g><g><g><path class="st4" d="M116.8,114.4c-0.6-4.3-4.2-7.6-8.6-7.6c-0.3,0-0.5,0.1-0.8,0.1c-1.5-4.8-6-8.2-11.3-8.2      c-6,0-10.9,4.4-11.7,10.2c-2.8,0.8-5,2.9-5.9,5.6H116.8z"/></g></g></g><g><g><g><path class="st0" d="M116.8,116.3H78.6c-0.6,0-1.2-0.3-1.5-0.8c-0.4-0.5-0.4-1.1-0.3-1.7c1-3,3.2-5.3,6.1-6.4      c1.4-6.1,7-10.6,13.3-10.6c5.5,0,10.4,3.2,12.5,8.2c5.1,0.2,9.3,4.1,9.9,9.2c0.1,0.5-0.1,1.1-0.5,1.5      C117.9,116,117.4,116.3,116.8,116.3z M81.8,112.5h32.5c-1.1-2.3-3.5-3.9-6.1-3.9c-0.1,0-0.2,0-0.2,0l-0.4,0      c-0.9,0.1-1.7-0.5-1.9-1.3c-1.3-4.2-5.1-6.9-9.5-6.9c-4.9,0-9.1,3.7-9.8,8.5c-0.1,0.7-0.6,1.3-1.4,1.5      C83.8,110.9,82.7,111.6,81.8,112.5z"/></g></g></g><g><g><g><path class="st4" d="M56.2,114.4c-0.6-4.3-4.2-7.6-8.6-7.6c-0.3,0-0.5,0.1-0.8,0.1c-1.5-4.8-6-8.2-11.3-8.2      c-6,0-10.9,4.4-11.7,10.2c-2.8,0.8-5,2.9-5.9,5.6H56.2z"/></g></g></g><g><g><g><path class="st0" d="M56.2,116.3H18c-0.6,0-1.2-0.3-1.5-0.8c-0.4-0.5-0.4-1.1-0.3-1.7c1-3,3.2-5.3,6.1-6.4      c1.4-6.1,7-10.6,13.3-10.6c5.5,0,10.4,3.2,12.5,8.2c5.1,0.2,9.3,4.1,9.9,9.2c0.1,0.5-0.1,1.1-0.5,1.5      C57.3,116,56.8,116.3,56.2,116.3z M21.2,112.5h32.5c-1.1-2.3-3.5-3.9-6.1-3.9c-0.1,0-0.2,0-0.2,0l-0.4,0      c-0.9,0.1-1.7-0.5-1.9-1.3c-1.3-4.2-5.1-6.9-9.5-6.9c-4.9,0-9.1,3.7-9.8,8.5c-0.1,0.7-0.6,1.3-1.4,1.5      C23.2,110.9,22.1,111.6,21.2,112.5z"/></g></g></g></g></svg>