<?xml version="1.0" encoding="UTF-8" standalone="no"?>
<!-- Created with Inkscape (http://www.inkscape.org/) -->

<svg
   xmlns:dc="http://purl.org/dc/elements/1.1/"
   xmlns:cc="http://creativecommons.org/ns#"
   xmlns:rdf="http://www.w3.org/1999/02/22-rdf-syntax-ns#"
   xmlns:svg="http://www.w3.org/2000/svg"
   xmlns="http://www.w3.org/2000/svg"
   xmlns:sodipodi="http://sodipodi.sourceforge.net/DTD/sodipodi-0.dtd"
   xmlns:inkscape="http://www.inkscape.org/namespaces/inkscape"
   version="1.1"
   id="svg2"
   xml:space="preserve"
   width="226.66667"
   height="233.33333"
   viewBox="0 0 226.66667 233.33333"
   sodipodi:docname="logo_bmi.svg"
   inkscape:version="0.92.3 (2405546, 2018-03-11)"><metadata
     id="metadata8"><rdf:RDF><cc:Work
         rdf:about=""><dc:format>image/svg+xml</dc:format><dc:type
           rdf:resource="http://purl.org/dc/dcmitype/StillImage" /><dc:title></dc:title></cc:Work></rdf:RDF></metadata><defs
     id="defs6" /><sodipodi:namedview
     pagecolor="#ffffff"
     bordercolor="#666666"
     borderopacity="1"
     objecttolerance="10"
     gridtolerance="10"
     guidetolerance="10"
     inkscape:pageopacity="0"
     inkscape:pageshadow="2"
     inkscape:window-width="2394"
     inkscape:window-height="1732"
     id="namedview4"
     showgrid="false"
     inkscape:zoom="4.0457144"
     inkscape:cx="136.29167"
     inkscape:cy="151.5147"
     inkscape:window-x="0"
     inkscape:window-y="65"
     inkscape:window-maximized="0"
     inkscape:current-layer="g12" /><g
     id="g10"
     inkscape:groupmode="layer"
     inkscape:label="ink_ext_XXXXXX"
     transform="matrix(1.3333333,0,0,-1.3333333,0,233.33333)"><g
       id="g12"
       transform="scale(0.1)"><path
         d="m 285.848,1526.54 c -2.207,1.47 -7.039,3.26 -12.813,3.26 -12.801,0 -25.301,-8.4 -25.301,-30.13 0,-21 9.762,-31.39 23.621,-31.39 5.04,0 9.036,0.94 12.083,2.1 v 20.89 l -6.411,1.47 c -1.05,0.21 -1.472,0.53 -1.472,1.15 0,0.95 0.73,2.21 1.164,3.16 h 23.926 c 0,0 0.105,-0.64 0.105,-1.16 0,-1.68 -0.945,-2.94 -3.562,-3.68 l -2.422,-0.62 v -21.95 c -2.832,-2.51 -10.598,-8.18 -26.036,-8.18 -18.48,0 -32.96,11.43 -32.96,36.95 0,27.29 20.261,38 37.683,38 11.137,0 16.699,-3.15 20.156,-4.73 0.317,-3.14 0.637,-9.65 0.637,-10.49 0,-3.26 -0.945,-5.35 -3.68,-5.35 -0.839,0 -1.679,0.2 -2.414,0.41 l -2.304,10.29"
         style="fill:#231f20;fill-opacity:1;fill-rule:nonzero;stroke:none"
         id="path16"
         inkscape:connector-curvature="0" /><path
         d="m 318.609,1487.91 c 0.11,-13.02 6.313,-19.11 15.336,-19.11 6.715,0 10.496,2.63 13.125,4.83 1.043,-0.84 1.571,-2.62 1.571,-3.57 0,-2.62 -6.922,-8.6 -18.582,-8.6 -12.911,0 -22.571,7.34 -22.571,25.61 0,18.27 11.028,27.61 22.989,27.61 11.867,0 17.851,-7.24 17.851,-17.74 0,-2.73 -0.527,-6.41 -1.258,-9.03 z m 18.379,5.56 c 0.207,0.95 0.532,2.74 0.532,4.52 0,5.78 -2.114,10.71 -8.196,10.71 -6.191,0 -9.875,-4.93 -10.605,-15.23 h 18.269"
         style="fill:#231f20;fill-opacity:1;fill-rule:nonzero;stroke:none"
         id="path18"
         inkscape:connector-curvature="0" /><path
         d="m 386.758,1507.64 h -12.813 v -39.26 l 7.137,-1.36 c 1.043,-0.21 1.477,-0.53 1.477,-1.37 0,-1.04 -0.743,-2.62 -1.059,-2.94 h -24.977 c 0,0 -0.109,0.63 -0.109,0.95 0,1.89 1.262,2.73 3.25,3.47 l 3.574,1.25 v 39.26 h -7.769 c 0,0 -0.11,0.64 -0.11,0.95 0,2 1.258,3.05 3.25,3.57 l 4.629,1.26 v 1.05 c 0,16.9 10.285,25.09 19.321,25.09 5.242,0 7.343,-2.31 7.343,-5.56 0,-2.63 -1.574,-4.1 -3.144,-4.94 -0.949,1.05 -3.684,3.05 -6.938,3.05 -4.507,0 -6.09,-2.52 -6.09,-8.72 0,-3.25 0.215,-9.97 0.215,-9.97 h 13.961 l -1.148,-5.78"
         style="fill:#231f20;fill-opacity:1;fill-rule:nonzero;stroke:none"
         id="path20"
         inkscape:connector-curvature="0" /><path
         d="m 440.82,1488.54 c 0,-18.16 -12.699,-27.08 -25.507,-27.08 -13.125,0 -23.938,8.39 -23.938,26.03 0,17.74 12.598,27.19 25.93,27.19 13.125,0 23.515,-7.88 23.515,-26.14 z m -34.113,33.38 c -3.152,0 -5.676,2.31 -5.676,5.67 0,3.57 2.524,5.88 5.676,5.88 3.25,0 5.664,-2.31 5.664,-5.88 0,-3.36 -2.414,-5.67 -5.664,-5.67 z m -4.094,-33.8 c 0,-14.07 5.664,-20.37 13.442,-20.37 7.761,0 13.535,6.09 13.535,20.16 0,14.07 -5.774,20.57 -13.535,20.57 -7.778,0 -13.442,-6.19 -13.442,-20.36 z m 23.086,33.8 c -3.355,0 -5.769,2.31 -5.769,5.67 0,3.57 2.414,5.88 5.769,5.88 3.156,0 5.571,-2.31 5.571,-5.88 0,-3.36 -2.415,-5.67 -5.571,-5.67"
         style="fill:#231f20;fill-opacity:1;fill-rule:nonzero;stroke:none"
         id="path22"
         inkscape:connector-curvature="0" /><path
         d="m 465.195,1505.02 h 0.313 c 2.207,3.57 6.094,9.66 12.906,9.66 4.945,0 7.246,-2.31 7.246,-5.56 0,-2.32 -1.043,-4.31 -1.883,-5.35 -0.839,0.41 -3.464,1.57 -7.043,1.57 -5.769,0 -8.707,-2.31 -10.914,-5.36 v -31.6 l 7.555,-1.36 c 1.059,-0.21 1.477,-0.53 1.477,-1.37 0,-1.04 -0.84,-2.62 -1.043,-2.94 h -25.411 c 0,0 -0.109,0.63 -0.109,0.95 0,1.89 1.262,2.73 3.25,3.47 l 3.684,1.25 v 38.85 l -7.45,1.15 c 0,0 -0.109,0.63 -0.109,1.05 0,1.78 1.359,3.05 3.875,3.25 l 14.281,1.37 -0.625,-9.03"
         style="fill:#231f20;fill-opacity:1;fill-rule:nonzero;stroke:none"
         id="path24"
         inkscape:connector-curvature="0" /><path
         d="m 534.688,1468.59 7.664,-1.05 c 0,0 0.105,-0.41 0.105,-0.84 0,-1.89 -1.363,-3.15 -3.887,-3.36 l -13.855,-1.25 v 6.82 h -0.313 c -2.312,-3.26 -6.718,-7.45 -14.914,-7.45 -10.281,0 -19.937,6.61 -19.937,24.87 0,19.53 13.648,28.35 27.09,28.35 3.035,0 5.664,-0.52 7.449,-0.95 v 18.38 l -7.449,1.05 c 0,0 -0.11,0.73 -0.11,1.15 0,1.79 1.36,3.05 3.875,3.25 l 14.282,1.37 z m -10.598,36.64 c -1.57,1.47 -4.414,3.15 -8.817,3.15 -8.507,0 -14.804,-6.09 -14.804,-19.95 0,-13.54 5.879,-19 12.91,-19 6.094,0 9.344,2.84 10.711,4.41 v 31.39"
         style="fill:#231f20;fill-opacity:1;fill-rule:nonzero;stroke:none"
         id="path26"
         inkscape:connector-curvature="0" /><path
         d="m 559.59,1487.91 c 0.098,-13.02 6.289,-19.11 15.32,-19.11 6.719,0 10.496,2.63 13.125,4.83 1.043,-0.84 1.574,-2.62 1.574,-3.57 0,-2.62 -6.933,-8.6 -18.586,-8.6 -12.91,0 -22.57,7.34 -22.57,25.61 0,18.27 11.027,27.61 22.992,27.61 11.864,0 17.852,-7.24 17.852,-17.74 0,-2.73 -0.527,-6.41 -1.262,-9.03 z m 18.367,5.56 c 0.203,0.95 0.52,2.74 0.52,4.52 0,5.78 -2.09,10.71 -8.188,10.71 -6.187,0 -9.859,-4.93 -10.601,-15.23 h 18.269"
         style="fill:#231f20;fill-opacity:1;fill-rule:nonzero;stroke:none"
         id="path28"
         inkscape:connector-curvature="0" /><path
         d="m 614.078,1505.02 h 0.317 c 2.207,3.57 6.089,9.66 12.91,9.66 4.937,0 7.246,-2.31 7.246,-5.56 0,-2.32 -1.047,-4.31 -1.887,-5.35 -0.84,0.41 -3.469,1.57 -7.043,1.57 -5.769,0 -8.711,-2.31 -10.918,-5.36 v -31.6 l 7.563,-1.36 c 1.054,-0.21 1.472,-0.53 1.472,-1.37 0,-1.04 -0.84,-2.62 -1.043,-2.94 h -25.414 c 0,0 -0.105,0.63 -0.105,0.95 0,1.89 1.262,2.73 3.254,3.47 l 3.679,1.25 v 38.85 l -7.453,1.15 c 0,0 -0.105,0.63 -0.105,1.05 0,1.78 1.355,3.05 3.879,3.25 l 14.273,1.37 -0.625,-9.03"
         style="fill:#231f20;fill-opacity:1;fill-rule:nonzero;stroke:none"
         id="path30"
         inkscape:connector-curvature="0" /><path
         d="m 669.82,1507.64 h -14.375 v -30.65 c 0,-4.72 1.465,-8.61 6.719,-8.61 4.094,0 7.453,1.79 8.293,2.52 0.527,-0.84 0.945,-2.41 0.945,-3.46 0,-1.05 -3.668,-5.98 -13.23,-5.98 -9.551,0 -13.328,5.56 -13.328,13.64 v 32.54 h -7.871 c 0,0 -0.11,0.64 -0.11,0.95 0,2 1.258,3.15 3.25,3.57 l 5.149,1.26 2.414,14.17 h 7.769 v -14.17 h 15.539 l -1.164,-5.78"
         style="fill:#231f20;fill-opacity:1;fill-rule:nonzero;stroke:none"
         id="path32"
         inkscape:connector-curvature="0" /><path
         d="m 743.531,1468.59 7.66,-1.05 c 0,0 0.106,-0.41 0.106,-0.84 0,-1.89 -1.367,-3.15 -3.887,-3.36 l -13.855,-1.25 v 6.82 h -0.317 c -2.3,-3.26 -6.715,-7.45 -14.898,-7.45 -10.293,0 -19.953,6.61 -19.953,24.87 0,19.53 13.64,28.35 27.082,28.35 3.047,0 5.672,-0.52 7.461,-0.95 v 18.38 l -7.461,1.05 c 0,0 -0.102,0.73 -0.102,1.15 0,1.79 1.367,3.05 3.891,3.25 l 14.273,1.37 z m -10.601,36.64 c -1.582,1.47 -4.414,3.15 -8.821,3.15 -8.504,0 -14.804,-6.09 -14.804,-19.95 0,-13.54 5.879,-19 12.91,-19 6.094,0 9.348,2.84 10.715,4.41 v 31.39"
         style="fill:#231f20;fill-opacity:1;fill-rule:nonzero;stroke:none"
         id="path34"
         inkscape:connector-curvature="0" /><path
         d="m 804.113,1468.59 7.657,-1.05 c 0,0 0.109,-0.41 0.109,-0.84 0,-1.89 -1.367,-3.15 -3.887,-3.36 l -13.859,-1.25 v 6.92 h -0.203 c -1.68,-2.2 -6.293,-7.55 -15.532,-7.55 -11.234,0 -16.488,6.61 -16.488,18.99 v 26.78 l -7.449,1.15 c 0,0 -0.106,0.63 -0.106,1.05 0,1.78 1.368,3.05 3.883,3.25 l 14.282,1.37 v -33.07 c 0,-9.55 5.039,-11.76 9.656,-11.76 5.351,0 8.91,2.31 11.332,5.04 v 32.97 l -7.453,1.15 c 0,0 -0.102,0.63 -0.102,1.05 0,1.78 1.367,3.05 3.891,3.25 l 14.269,1.37 v -45.46"
         style="fill:#231f20;fill-opacity:1;fill-rule:nonzero;stroke:none"
         id="path36"
         inkscape:connector-curvature="0" /><path
         d="m 833.832,1505.02 h 0.313 c 2.207,3.57 6.093,9.66 12.918,9.66 4.933,0 7.238,-2.31 7.238,-5.56 0,-2.32 -1.047,-4.31 -1.887,-5.35 -0.84,0.41 -3.465,1.57 -7.031,1.57 -5.781,0 -8.719,-2.31 -10.918,-5.36 v -31.6 l 7.558,-1.36 c 1.047,-0.21 1.465,-0.53 1.465,-1.37 0,-1.04 -0.84,-2.62 -1.054,-2.94 h -25.399 c 0,0 -0.109,0.63 -0.109,0.95 0,1.89 1.262,2.73 3.262,3.47 l 3.671,1.25 v 38.85 l -7.461,1.15 c 0,0 -0.097,0.63 -0.097,1.05 0,1.78 1.367,3.05 3.887,3.25 l 14.277,1.37 -0.633,-9.03"
         style="fill:#231f20;fill-opacity:1;fill-rule:nonzero;stroke:none"
         id="path38"
         inkscape:connector-curvature="0" /><path
         d="m 882.648,1508.38 c -7.031,0 -13.125,-5.04 -13.125,-18.79 0,-13.23 5.149,-20.89 15.02,-20.89 6.504,0 10.285,3.35 11.965,5.03 0.945,-0.94 1.68,-2.62 1.68,-3.56 0,-2.63 -5.774,-8.71 -17.317,-8.71 -13.652,0 -22.469,8.6 -22.469,25.93 0,17.74 11.864,27.29 26.036,27.29 11.55,0 14.48,-5.67 14.48,-8.72 0,-2.83 -1.355,-5.45 -5.352,-6.29 -1.57,3.67 -3.984,8.71 -10.918,8.71"
         style="fill:#231f20;fill-opacity:1;fill-rule:nonzero;stroke:none"
         id="path40"
         inkscape:connector-curvature="0" /><path
         d="m 921.613,1507.13 h 0.207 c 2.098,2.51 7.137,7.55 16.172,7.55 10.496,0 16.473,-6.2 16.473,-18.47 v -27.83 l 6.094,-1.36 c 1.054,-0.21 1.464,-0.53 1.464,-1.37 0,-1.04 -0.839,-2.62 -1.043,-2.94 h -23.828 c 0,0 -0.109,0.63 -0.109,0.95 0,1.89 1.262,2.83 3.254,3.47 l 3.465,1.25 v 26.57 c 0,8.92 -4.824,11.65 -10.184,11.65 -6.504,0 -9.973,-2.83 -11.965,-4.83 v -33.39 l 5.879,-1.36 c 1.047,-0.21 1.465,-0.53 1.465,-1.37 0,-1.04 -0.73,-2.62 -1.043,-2.94 h -23.84 c 0,0 -0.097,0.63 -0.097,0.95 0,1.89 1.261,2.83 3.253,3.47 l 3.672,1.25 v 63.73 l -7.453,1.05 c 0,0 -0.105,0.73 -0.105,1.15 0,1.79 1.367,3.05 3.886,3.25 l 14.383,1.37 v -31.8"
         style="fill:#231f20;fill-opacity:1;fill-rule:nonzero;stroke:none"
         id="path42"
         inkscape:connector-curvature="0" /><path
         d="m 975.578,1501.77 c -3.672,0 -6.504,2.52 -6.504,6.4 0,3.99 2.832,6.51 6.504,6.51 3.684,0 6.621,-2.52 6.621,-6.51 0,-3.88 -2.937,-6.4 -6.621,-6.4 z m 0,-40.42 c -3.672,0 -6.504,2.52 -6.504,6.4 0,3.99 2.832,6.51 6.504,6.51 3.684,0 6.621,-2.52 6.621,-6.51 0,-3.88 -2.937,-6.4 -6.621,-6.4"
         style="fill:#231f20;fill-opacity:1;fill-rule:nonzero;stroke:none"
         id="path44"
         inkscape:connector-curvature="0" /><path
         d="m 273.152,352.383 c 0,-4.199 1.575,-5.457 3.36,-5.457 2.414,0 3.672,1.258 3.984,1.785 0.527,-0.742 1.262,-2.207 1.262,-3.152 0,-1.371 -2.727,-5.461 -9.555,-5.461 -4.832,0 -7.879,2.097 -8.816,7.351 h -0.215 c -1.152,-2 -5.039,-7.554 -13.75,-7.554 -7.977,0 -13.652,5.457 -13.652,13.75 0,11.23 12.285,15.425 24.043,15.425 h 2.734 v 4.731 c 0,9.551 -2.52,13.328 -9.031,13.328 -2.414,0 -4.516,-0.734 -5.356,-1.043 -0.945,-2.004 -1.785,-5.676 -2.312,-9.238 0,0 -1.571,-0.11 -2.41,-0.11 -3.567,0 -5.559,1.68 -5.559,4.934 0,6.512 8.605,11.441 18.367,11.441 11.543,0 16.906,-6.297 16.906,-18.164 z m -13.027,11.445 c -8.496,-0.422 -13.328,-3.469 -13.328,-9.031 0,-4.406 2.519,-7.348 6.824,-7.348 4.309,0 7.559,2.832 8.926,4.516 v 11.961 l -2.422,-0.098"
         style="fill:#231f20;fill-opacity:1;fill-rule:nonzero;stroke:none"
         id="path46"
         inkscape:connector-curvature="0" /><path
         d="m 333.094,347.031 7.668,-1.054 c 0,0 0.105,-0.418 0.105,-0.84 0,-1.883 -1.367,-3.145 -3.887,-3.36 l -13.859,-1.257 v 6.929 h -0.203 c -1.68,-2.207 -6.301,-7.554 -15.535,-7.554 -11.242,0 -16.485,6.609 -16.485,18.992 v 26.777 l -7.453,1.152 c 0,0 -0.105,0.625 -0.105,1.043 0,1.789 1.363,3.047 3.887,3.266 l 14.273,1.355 v -33.066 c 0,-9.551 5.039,-11.758 9.66,-11.758 5.352,0 8.926,2.317 11.336,5.039 v 32.969 l -7.449,1.152 c 0,0 -0.106,0.625 -0.106,1.043 0,1.789 1.356,3.047 3.875,3.266 l 14.278,1.355 v -45.449"
         style="fill:#231f20;fill-opacity:1;fill-rule:nonzero;stroke:none"
         id="path48"
         inkscape:connector-curvature="0" /><path
         d="M 376.473,386.086 H 363.66 v -39.27 l 7.141,-1.367 c 1.043,-0.207 1.472,-0.515 1.472,-1.355 0,-1.059 -0.742,-2.629 -1.054,-2.942 h -24.981 c 0,0 -0.105,0.625 -0.105,0.938 0,1.894 1.258,2.734 3.25,3.469 l 3.574,1.257 v 39.27 h -7.773 c 0,0 -0.11,0.625 -0.11,0.934 0,2.003 1.262,3.046 3.254,3.578 l 4.629,1.257 v 1.043 c 0,16.907 10.281,25.102 19.316,25.102 5.247,0 7.344,-2.316 7.344,-5.566 0,-2.629 -1.57,-4.094 -3.144,-4.934 -0.946,1.047 -3.684,3.035 -6.934,3.035 -4.512,0 -6.094,-2.515 -6.094,-8.711 0,-3.25 0.215,-9.969 0.215,-9.969 h 13.965 l -1.152,-5.769"
         style="fill:#231f20;fill-opacity:1;fill-rule:nonzero;stroke:none"
         id="path50"
         inkscape:connector-curvature="0" /><path
         d="m 428.855,385.867 h -8.496 c 1.993,-2.625 3.25,-5.769 3.25,-9.551 0,-11.128 -9.238,-17.429 -20.679,-17.429 -1.789,0 -3.36,0.215 -4.934,0.527 -1.473,-0.84 -2.937,-2.305 -2.937,-4.726 0,-2.52 1.675,-3.672 5.242,-3.672 h 12.179 c 9.657,0 15.118,-4.407 15.118,-11.961 0,-10.5 -10.285,-20.16 -28.028,-20.16 -12.914,0 -19.211,4.511 -19.211,12.179 0,7.344 5.774,10.813 9.551,11.961 v 0.219 c -2.734,1.465 -4.305,3.98 -4.305,7.344 0,6.09 5.567,8.922 7.555,9.968 v 0.215 c -5.879,2.625 -9.656,7.981 -9.656,15.535 0,11.028 9.238,16.797 19.949,16.797 2.832,0 5.559,-0.418 8.188,-1.258 h 18.367 z M 398.621,341.57 c -1.465,0 -2.723,0.102 -3.887,0.207 -2.722,-1.574 -4.511,-4.199 -4.511,-7.761 0,-5.461 3.359,-8.926 11.023,-8.926 10.188,0 16.488,4.723 16.488,10.281 0,4.309 -2.414,6.199 -7.777,6.199 z M 394,376.211 c 0,-8.289 4.199,-11.543 9.453,-11.543 5.664,0 9.758,3.254 9.758,11.543 0,7.449 -4.094,11.23 -9.551,11.23 -5.461,0 -9.66,-3.144 -9.66,-11.23"
         style="fill:#231f20;fill-opacity:1;fill-rule:nonzero;stroke:none"
         id="path52"
         inkscape:connector-curvature="0" /><path
         d="m 451.121,383.457 h 0.313 c 2.207,3.563 6.093,9.656 12.91,9.656 4.941,0 7.246,-2.312 7.246,-5.562 0,-2.309 -1.043,-4.309 -1.887,-5.356 -0.84,0.422 -3.465,1.575 -7.039,1.575 -5.769,0 -8.711,-2.305 -10.918,-5.352 v -31.602 l 7.559,-1.367 c 1.054,-0.207 1.472,-0.515 1.472,-1.355 0,-1.059 -0.836,-2.629 -1.043,-2.942 h -25.41 c 0,0 -0.105,0.625 -0.105,0.938 0,1.894 1.258,2.734 3.25,3.469 l 3.683,1.257 v 38.848 l -7.453,1.152 c 0,0 -0.105,0.625 -0.105,1.043 0,1.789 1.355,3.047 3.875,3.266 l 14.277,1.355 -0.625,-9.023"
         style="fill:#231f20;fill-opacity:1;fill-rule:nonzero;stroke:none"
         id="path54"
         inkscape:connector-curvature="0" /><path
         d="m 523.68,347.031 7.656,-1.054 c 0,0 0.109,-0.418 0.109,-0.84 0,-1.883 -1.371,-3.145 -3.886,-3.36 l -13.86,-1.257 v 6.929 h -0.207 c -1.676,-2.207 -6.297,-7.554 -15.535,-7.554 -11.23,0 -16.484,6.609 -16.484,18.992 v 26.777 l -7.45,1.152 c 0,0 -0.109,0.625 -0.109,1.043 0,1.789 1.367,3.047 3.887,3.266 l 14.277,1.355 v -33.066 c 0,-9.551 5.039,-11.758 9.656,-11.758 5.356,0 8.918,2.317 11.34,5.039 v 32.969 l -7.461,1.152 c 0,0 -0.097,0.625 -0.097,1.043 0,1.789 1.367,3.047 3.886,3.266 l 14.278,1.355 v -45.449"
         style="fill:#231f20;fill-opacity:1;fill-rule:nonzero;stroke:none"
         id="path56"
         inkscape:connector-curvature="0" /><path
         d="m 586.883,346.816 6.191,-1.367 c 1.055,-0.207 1.477,-0.515 1.477,-1.355 0,-1.059 -0.844,-2.629 -1.047,-2.942 h -23.84 c 0,0 -0.105,0.625 -0.105,0.938 0,1.894 1.269,2.844 3.261,3.469 l 3.457,1.257 v 26.563 c 0,8.926 -5.039,11.648 -10.175,11.648 -5.989,0 -9.872,-2.832 -12.071,-4.617 v -33.594 l 5.977,-1.367 c 1.055,-0.207 1.476,-0.515 1.476,-1.355 0,-1.059 -0.839,-2.629 -1.054,-2.942 h -23.828 c 0,0 -0.11,0.625 -0.11,0.938 0,1.894 1.262,2.734 3.262,3.469 l 3.672,1.257 v 38.848 l -7.461,1.152 c 0,0 -0.098,0.625 -0.098,1.043 0,1.789 1.367,3.047 3.887,3.266 l 14.277,1.355 -0.633,-7.343 h 0.309 c 2.844,3.047 7.563,7.976 17.219,7.976 10.293,0 15.957,-6.609 15.957,-18.472 v -27.825"
         style="fill:#231f20;fill-opacity:1;fill-rule:nonzero;stroke:none"
         id="path58"
         inkscape:connector-curvature="0" /><path
         d="m 645.047,347.031 7.668,-1.054 c 0,0 0.105,-0.418 0.105,-0.84 0,-1.883 -1.367,-3.145 -3.886,-3.36 l -13.86,-1.257 v 6.824 h -0.308 c -2.317,-3.25 -6.719,-7.449 -14.914,-7.449 -10.282,0 -19.942,6.609 -19.942,24.871 0,19.531 13.653,28.347 27.09,28.347 3.035,0 5.664,-0.523 7.449,-0.945 v 18.367 L 627,411.594 c 0,0 -0.105,0.73 -0.105,1.148 0,1.789 1.355,3.051 3.875,3.254 l 14.277,1.367 z m -10.598,36.629 c -1.57,1.477 -4.414,3.156 -8.816,3.156 -8.504,0 -14.805,-6.093 -14.805,-19.953 0,-13.535 5.879,-18.992 12.91,-18.992 6.094,0 9.344,2.832 10.711,4.402 v 31.387"
         style="fill:#231f20;fill-opacity:1;fill-rule:nonzero;stroke:none"
         id="path60"
         inkscape:connector-curvature="0" /><path
         d="m 691.785,366.348 c 0.098,-13.02 6.289,-19.114 15.324,-19.114 6.715,0 10.496,2.629 13.125,4.836 1.043,-0.84 1.571,-2.629 1.571,-3.574 0,-2.629 -6.934,-8.601 -18.582,-8.601 -12.91,0 -22.571,7.339 -22.571,25.613 0,18.262 11.028,27.605 22.989,27.605 11.867,0 17.851,-7.246 17.851,-17.742 0,-2.726 -0.527,-6.406 -1.258,-9.023 z m 18.367,5.554 c 0.207,0.95 0.52,2.739 0.52,4.524 0,5.769 -2.09,10.703 -8.184,10.703 -6.191,0 -9.863,-4.934 -10.605,-15.227 h 18.269"
         style="fill:#231f20;fill-opacity:1;fill-rule:nonzero;stroke:none"
         id="path62"
         inkscape:connector-curvature="0" /><path
         d="m 746.902,346.816 6.192,-1.367 c 1.047,-0.207 1.465,-0.515 1.465,-1.355 0,-1.059 -0.84,-2.629 -1.043,-2.942 h -24.043 c 0,0 -0.11,0.625 -0.11,0.938 0,1.894 1.258,2.734 3.262,3.469 l 3.672,1.257 v 38.848 l -7.461,1.152 c 0,0 -0.098,0.625 -0.098,1.043 0,1.789 1.367,3.047 3.887,3.266 l 14.277,1.355 z m -5.363,56.067 c -3.875,0 -6.824,2.617 -6.824,6.719 0,3.984 2.949,6.714 6.824,6.714 3.781,0 6.938,-2.73 6.938,-6.714 0,-4.102 -3.157,-6.719 -6.938,-6.719"
         style="fill:#231f20;fill-opacity:1;fill-rule:nonzero;stroke:none"
         id="path64"
         inkscape:connector-curvature="0" /><path
         d="m 810.203,346.816 6.192,-1.367 c 1.054,-0.207 1.472,-0.515 1.472,-1.355 0,-1.059 -0.84,-2.629 -1.043,-2.942 h -23.84 c 0,0 -0.105,0.625 -0.105,0.938 0,1.894 1.269,2.844 3.262,3.469 l 3.457,1.257 v 26.563 c 0,8.926 -5.039,11.648 -10.176,11.648 -5.984,0 -9.871,-2.832 -12.07,-4.617 v -33.594 l 5.976,-1.367 c 1.055,-0.207 1.477,-0.515 1.477,-1.355 0,-1.059 -0.84,-2.629 -1.059,-2.942 h -23.824 c 0,0 -0.109,0.625 -0.109,0.938 0,1.894 1.257,2.734 3.261,3.469 l 3.672,1.257 v 38.848 l -7.461,1.152 c 0,0 -0.097,0.625 -0.097,1.043 0,1.789 1.367,3.047 3.886,3.266 l 14.278,1.355 -0.633,-7.343 h 0.308 c 2.844,3.047 7.563,7.976 17.219,7.976 10.293,0 15.957,-6.609 15.957,-18.472 v -27.825"
         style="fill:#231f20;fill-opacity:1;fill-rule:nonzero;stroke:none"
         id="path66"
         inkscape:connector-curvature="0" /><path
         d="m 834.363,366.348 c 0.11,-13.02 6.309,-19.114 15.332,-19.114 6.719,0 10.5,2.629 13.125,4.836 1.043,-0.84 1.575,-2.629 1.575,-3.574 0,-2.629 -6.926,-8.601 -18.586,-8.601 -12.911,0 -22.571,7.339 -22.571,25.613 0,18.262 11.028,27.605 22.992,27.605 11.864,0 17.848,-7.246 17.848,-17.742 0,-2.726 -0.523,-6.406 -1.258,-9.023 z m 18.379,5.554 c 0.203,0.95 0.528,2.739 0.528,4.524 0,5.769 -2.11,10.703 -8.196,10.703 -6.187,0 -9.871,-4.934 -10.601,-15.227 h 18.269"
         style="fill:#231f20;fill-opacity:1;fill-rule:nonzero;stroke:none"
         id="path68"
         inkscape:connector-curvature="0" /><path
         d="m 896.941,385.344 c -1.152,0.84 -3.781,2.097 -6.933,2.097 -3.457,0 -7.031,-1.464 -7.031,-5.878 0,-4.622 4.929,-7.344 9.968,-10.286 6.301,-3.777 13.02,-7.871 13.02,-16.265 0,-8.617 -7.141,-15.117 -18.684,-15.117 -5.879,0 -11.129,1.777 -13.328,3.14 -0.43,2.629 -0.742,5.356 -0.742,8.09 0,4.195 1.152,5.879 4.309,5.879 0.527,0 1.367,-0.109 1.367,-0.109 l 2.195,-8.926 c 1.055,-0.735 4.102,-2.102 7.148,-2.102 5.137,0 8.399,2.004 8.399,6.406 0,4.512 -5.039,7.036 -9.766,9.973 -6.406,4.102 -12.812,8.192 -12.812,17.219 0,8.191 7.14,13.648 17.219,13.648 6.089,0 10.398,-2.097 12.285,-3.883 0.203,-1.464 0.418,-3.671 0.418,-5.773 0,-3.672 -0.735,-6.094 -4.512,-6.094 -0.527,0 -1.262,0.11 -1.262,0.11 l -1.258,7.871"
         style="fill:#231f20;fill-opacity:1;fill-rule:nonzero;stroke:none"
         id="path70"
         inkscape:connector-curvature="0" /><path
         d="m 974.742,378.625 v -0.207 c 10.188,-1.68 16.906,-7.449 16.906,-17.012 0,-11.758 -9.66,-20.254 -28.554,-20.254 h -26.668 c 0,0 -0.11,0.625 -0.11,1.153 0,1.679 0.84,3.144 3.575,3.781 l 4.414,1.043 v 60.684 l -6.407,1.464 c -1.054,0.215 -1.472,0.528 -1.472,1.161 0,0.941 0.73,2.199 1.16,3.148 h 24.668 c 18.684,0 27.605,-6.613 27.605,-18.266 0,-9.976 -6.082,-14.695 -15.117,-16.695 z m -13.433,28.555 h -5.676 v -26.457 h 5.566 c 11.973,0 17.012,5.879 17.012,13.34 0,8.605 -5.352,13.117 -16.902,13.117 z m 1.257,-32.539 h -6.933 v -27.09 h 6.308 c 12.278,0 17.735,5.777 17.735,13.965 0,7.769 -5.774,13.125 -17.11,13.125"
         style="fill:#231f20;fill-opacity:1;fill-rule:nonzero;stroke:none"
         id="path72"
         inkscape:connector-curvature="0" /><path
         d="m 1012.33,366.348 c 0.11,-13.02 6.31,-19.114 15.33,-19.114 6.72,0 10.5,2.629 13.13,4.836 1.04,-0.84 1.57,-2.629 1.57,-3.574 0,-2.629 -6.92,-8.601 -18.58,-8.601 -12.91,0 -22.57,7.339 -22.57,25.613 0,18.262 11.02,27.605 22.99,27.605 11.86,0 17.85,-7.246 17.85,-17.742 0,-2.726 -0.53,-6.406 -1.26,-9.023 z m 18.38,5.554 c 0.2,0.95 0.53,2.739 0.53,4.524 0,5.769 -2.11,10.703 -8.19,10.703 -6.19,0 -9.88,-4.934 -10.61,-15.227 h 18.27"
         style="fill:#231f20;fill-opacity:1;fill-rule:nonzero;stroke:none"
         id="path74"
         inkscape:connector-curvature="0" /><path
         d="m 1074.92,385.344 c -1.16,0.84 -3.78,2.097 -6.94,2.097 -3.46,0 -7.03,-1.464 -7.03,-5.878 0,-4.622 4.94,-7.344 9.98,-10.286 6.3,-3.777 13.02,-7.871 13.02,-16.265 0,-8.617 -7.15,-15.117 -18.69,-15.117 -5.88,0 -11.13,1.777 -13.34,3.14 -0.41,2.629 -0.73,5.356 -0.73,8.09 0,4.195 1.16,5.879 4.31,5.879 0.52,0 1.36,-0.109 1.36,-0.109 l 2.21,-8.926 c 1.04,-0.735 4.09,-2.102 7.13,-2.102 5.15,0 8.4,2.004 8.4,6.406 0,4.512 -5.04,7.036 -9.76,9.973 -6.4,4.102 -12.81,8.192 -12.81,17.219 0,8.191 7.14,13.648 17.22,13.648 6.09,0 10.39,-2.097 12.28,-3.883 0.22,-1.464 0.42,-3.671 0.42,-5.773 0,-3.672 -0.73,-6.094 -4.51,-6.094 -0.53,0 -1.26,0.11 -1.26,0.11 l -1.26,7.871"
         style="fill:#231f20;fill-opacity:1;fill-rule:nonzero;stroke:none"
         id="path76"
         inkscape:connector-curvature="0" /><path
         d="m 1116.49,386.816 c -7.03,0 -13.12,-5.039 -13.12,-18.789 0,-13.23 5.15,-20.898 15.02,-20.898 6.5,0 10.28,3.359 11.96,5.039 0.95,-0.938 1.68,-2.617 1.68,-3.563 0,-2.628 -5.77,-8.71 -17.32,-8.71 -13.65,0 -22.47,8.601 -22.47,25.925 0,17.743 11.87,27.293 26.04,27.293 11.55,0 14.48,-5.672 14.48,-8.711 0,-2.839 -1.36,-5.457 -5.35,-6.297 -1.57,3.672 -3.98,8.711 -10.92,8.711"
         style="fill:#231f20;fill-opacity:1;fill-rule:nonzero;stroke:none"
         id="path78"
         inkscape:connector-curvature="0" /><path
         d="m 1155.46,385.559 h 0.2 c 2.1,2.515 7.14,7.554 16.17,7.554 10.5,0 16.48,-6.187 16.48,-18.472 v -27.825 l 6.09,-1.367 c 1.06,-0.207 1.47,-0.515 1.47,-1.355 0,-1.059 -0.84,-2.629 -1.05,-2.942 h -23.83 c 0,0 -0.1,0.625 -0.1,0.938 0,1.894 1.26,2.844 3.25,3.469 l 3.47,1.257 v 26.563 c 0,8.926 -4.83,11.648 -10.19,11.648 -6.51,0 -9.97,-2.832 -11.96,-4.824 v -33.387 l 5.88,-1.367 c 1.04,-0.207 1.46,-0.515 1.46,-1.355 0,-1.059 -0.73,-2.629 -1.04,-2.942 h -23.84 c 0,0 -0.1,0.625 -0.1,0.938 0,1.894 1.26,2.844 3.25,3.469 l 3.67,1.257 v 63.719 l -7.45,1.059 c 0,0 -0.1,0.73 -0.1,1.148 0,1.789 1.36,3.051 3.88,3.254 l 14.39,1.367 v -31.804"
         style="fill:#231f20;fill-opacity:1;fill-rule:nonzero;stroke:none"
         id="path80"
         inkscape:connector-curvature="0" /><path
         d="m 1217.19,346.816 6.08,-1.367 c 1.05,-0.207 1.47,-0.515 1.47,-1.355 0,-1.059 -0.73,-2.629 -1.04,-2.942 h -23.95 c 0,0 -0.09,0.625 -0.09,0.938 0,1.894 1.25,2.844 3.25,3.469 l 3.67,1.257 v 63.719 l -7.45,1.059 c 0,0 -0.11,0.73 -0.11,1.148 0,1.789 1.37,3.051 3.89,3.254 l 14.28,1.367 v -70.547"
         style="fill:#231f20;fill-opacity:1;fill-rule:nonzero;stroke:none"
         id="path82"
         inkscape:connector-curvature="0" /><path
         d="m 1278.19,347.031 7.66,-1.054 c 0,0 0.1,-0.418 0.1,-0.84 0,-1.883 -1.36,-3.145 -3.88,-3.36 l -13.86,-1.257 v 6.929 h -0.2 c -1.69,-2.207 -6.3,-7.554 -15.54,-7.554 -11.23,0 -16.49,6.609 -16.49,18.992 v 26.777 l -7.45,1.152 c 0,0 -0.1,0.625 -0.1,1.043 0,1.789 1.36,3.047 3.88,3.266 l 14.28,1.355 v -33.066 c 0,-9.551 5.04,-11.758 9.66,-11.758 5.35,0 8.91,2.317 11.34,5.039 v 32.969 l -7.46,1.152 c 0,0 -0.1,0.625 -0.1,1.043 0,1.789 1.36,3.047 3.88,3.266 l 14.28,1.355 v -45.449"
         style="fill:#231f20;fill-opacity:1;fill-rule:nonzero;stroke:none"
         id="path84"
         inkscape:connector-curvature="0" /><path
         d="m 1315.99,385.344 c -1.16,0.84 -3.78,2.097 -6.93,2.097 -3.47,0 -7.03,-1.464 -7.03,-5.878 0,-4.622 4.93,-7.344 9.97,-10.286 6.3,-3.777 13.02,-7.871 13.02,-16.265 0,-8.617 -7.14,-15.117 -18.68,-15.117 -5.88,0 -11.14,1.777 -13.34,3.14 -0.41,2.629 -0.73,5.356 -0.73,8.09 0,4.195 1.16,5.879 4.3,5.879 0.53,0 1.37,-0.109 1.37,-0.109 l 2.2,-8.926 c 1.05,-0.735 4.09,-2.102 7.13,-2.102 5.15,0 8.4,2.004 8.4,6.406 0,4.512 -5.04,7.036 -9.76,9.973 -6.4,4.102 -12.8,8.192 -12.8,17.219 0,8.191 7.13,13.648 17.21,13.648 6.09,0 10.39,-2.097 12.29,-3.883 0.21,-1.464 0.42,-3.671 0.42,-5.773 0,-3.672 -0.74,-6.094 -4.51,-6.094 -0.54,0 -1.27,0.11 -1.27,0.11 l -1.26,7.871"
         style="fill:#231f20;fill-opacity:1;fill-rule:nonzero;stroke:none"
         id="path86"
         inkscape:connector-curvature="0" /><path
         d="m 1357.36,385.344 c -1.16,0.84 -3.78,2.097 -6.93,2.097 -3.47,0 -7.03,-1.464 -7.03,-5.878 0,-4.622 4.93,-7.344 9.97,-10.286 6.29,-3.777 13.02,-7.871 13.02,-16.265 0,-8.617 -7.14,-15.117 -18.69,-15.117 -5.88,0 -11.13,1.777 -13.34,3.14 -0.41,2.629 -0.73,5.356 -0.73,8.09 0,4.195 1.16,5.879 4.31,5.879 0.52,0 1.36,-0.109 1.36,-0.109 l 2.21,-8.926 c 1.05,-0.735 4.1,-2.102 7.13,-2.102 5.15,0 8.4,2.004 8.4,6.406 0,4.512 -5.04,7.036 -9.76,9.973 -6.4,4.102 -12.81,8.192 -12.81,17.219 0,8.191 7.14,13.648 17.22,13.648 6.09,0 10.39,-2.097 12.28,-3.883 0.22,-1.464 0.42,-3.671 0.42,-5.773 0,-3.672 -0.73,-6.094 -4.51,-6.094 -0.52,0 -1.26,0.11 -1.26,0.11 l -1.26,7.871"
         style="fill:#231f20;fill-opacity:1;fill-rule:nonzero;stroke:none"
         id="path88"
         inkscape:connector-curvature="0" /><path
         d="m 1385.81,366.348 c 0.1,-13.02 6.31,-19.114 15.33,-19.114 6.72,0 10.5,2.629 13.13,4.836 1.04,-0.84 1.57,-2.629 1.57,-3.574 0,-2.629 -6.93,-8.601 -18.59,-8.601 -12.91,0 -22.56,7.339 -22.56,25.613 0,18.262 11.02,27.605 22.99,27.605 11.86,0 17.85,-7.246 17.85,-17.742 0,-2.726 -0.53,-6.406 -1.26,-9.023 z m 18.38,5.554 c 0.2,0.95 0.52,2.739 0.52,4.524 0,5.769 -2.1,10.703 -8.19,10.703 -6.19,0 -9.87,-4.934 -10.61,-15.227 h 18.28"
         style="fill:#231f20;fill-opacity:1;fill-rule:nonzero;stroke:none"
         id="path90"
         inkscape:connector-curvature="0" /><path
         d="m 1448.4,385.344 c -1.17,0.84 -3.78,2.097 -6.94,2.097 -3.46,0 -7.03,-1.464 -7.03,-5.878 0,-4.622 4.93,-7.344 9.97,-10.286 6.3,-3.777 13.02,-7.871 13.02,-16.265 0,-8.617 -7.14,-15.117 -18.68,-15.117 -5.88,0 -11.13,1.777 -13.34,3.14 -0.41,2.629 -0.74,5.356 -0.74,8.09 0,4.195 1.17,5.879 4.31,5.879 0.53,0 1.37,-0.109 1.37,-0.109 l 2.21,-8.926 c 1.04,-0.735 4.09,-2.102 7.13,-2.102 5.14,0 8.39,2.004 8.39,6.406 0,4.512 -5.03,7.036 -9.75,9.973 -6.41,4.102 -12.81,8.192 -12.81,17.219 0,8.191 7.13,13.648 17.21,13.648 6.1,0 10.39,-2.097 12.29,-3.883 0.21,-1.464 0.42,-3.671 0.42,-5.773 0,-3.672 -0.73,-6.094 -4.52,-6.094 -0.52,0 -1.25,0.11 -1.25,0.11 l -1.26,7.871"
         style="fill:#231f20;fill-opacity:1;fill-rule:nonzero;stroke:none"
         id="path92"
         inkscape:connector-curvature="0" /><path
         d="m 281.551,227.02 7.656,-1.051 c 0,0 0.109,-0.41 0.109,-0.84 0,-1.887 -1.371,-3.149 -3.886,-3.359 l -13.86,-1.25 v 6.816 h -0.312 c -2.305,-3.254 -6.719,-7.453 -14.903,-7.453 -10.292,0 -19.953,6.609 -19.953,24.883 0,19.519 13.645,28.339 27.082,28.339 3.047,0 5.672,-0.515 7.461,-0.949 v 18.379 l -7.461,1.047 c 0,0 -0.097,0.731 -0.097,1.16 0,1.778 1.367,3.039 3.886,3.254 l 14.278,1.359 z m -10.606,36.64 c -1.582,1.469 -4.414,3.149 -8.82,3.149 -8.504,0 -14.805,-6.086 -14.805,-19.946 0,-13.543 5.879,-19.004 12.914,-19.004 6.09,0 9.344,2.832 10.711,4.414 v 31.387"
         style="fill:#231f20;fill-opacity:1;fill-rule:nonzero;stroke:none"
         id="path94"
         inkscape:connector-curvature="0" /><path
         d="m 306.434,246.34 c 0.105,-13.02 6.308,-19.106 15.332,-19.106 6.718,0 10.5,2.621 13.125,4.829 1.047,-0.84 1.574,-2.629 1.574,-3.579 0,-2.617 -6.926,-8.601 -18.586,-8.601 -12.91,0 -22.566,7.351 -22.566,25.617 0,18.262 11.023,27.605 22.988,27.605 11.863,0 17.851,-7.238 17.851,-17.746 0,-2.722 -0.531,-6.394 -1.261,-9.019 z m 18.379,5.562 c 0.207,0.942 0.527,2.727 0.527,4.516 0,5.77 -2.11,10.699 -8.192,10.699 -6.195,0 -9.875,-4.929 -10.609,-15.215 h 18.274"
         style="fill:#231f20;fill-opacity:1;fill-rule:nonzero;stroke:none"
         id="path96"
         inkscape:connector-curvature="0" /><path
         d="m 369.012,265.344 c -1.153,0.84 -3.778,2.097 -6.934,2.097 -3.457,0 -7.031,-1.472 -7.031,-5.878 0,-4.622 4.933,-7.352 9.973,-10.293 6.296,-3.782 13.015,-7.872 13.015,-16.27 0,-8.605 -7.137,-15.117 -18.68,-15.117 -5.878,0 -11.132,1.789 -13.332,3.152 -0.429,2.617 -0.742,5.356 -0.742,8.078 0,4.2 1.153,5.879 4.309,5.879 0.523,0 1.363,-0.105 1.363,-0.105 l 2.199,-8.918 c 1.055,-0.735 4.102,-2.102 7.149,-2.102 5.137,0 8.398,1.992 8.398,6.406 0,4.512 -5.039,7.036 -9.765,9.973 -6.407,4.094 -12.813,8.184 -12.813,17.219 0,8.18 7.141,13.64 17.219,13.64 6.094,0 10.398,-2.097 12.281,-3.875 0.207,-1.476 0.422,-3.683 0.422,-5.785 0,-3.672 -0.73,-6.082 -4.512,-6.082 -0.527,0 -1.258,0.11 -1.258,0.11 l -1.261,7.871"
         style="fill:#231f20;fill-opacity:1;fill-rule:nonzero;stroke:none"
         id="path98"
         inkscape:connector-curvature="0" /><path
         d="m 432.227,221.145 h -23.735 c 0,0 -0.105,0.625 -0.105,1.152 0,1.68 0.84,3.152 3.574,3.777 l 4.414,1.055 v 60.676 l -6.406,1.472 c -1.055,0.203 -1.477,0.52 -1.477,1.153 0,0.949 0.735,2.207 1.164,3.156 h 22.571 c 26.453,0 42.3,-9.875 42.3,-35.18 0,-25.508 -15.75,-37.261 -42.3,-37.261 z m -0.325,66.035 h -4.199 v -59.629 h 4.199 c 19.422,0 30.555,10.176 30.555,30.547 0,19.629 -11.238,29.082 -30.555,29.082"
         style="fill:#231f20;fill-opacity:1;fill-rule:nonzero;stroke:none"
         id="path100"
         inkscape:connector-curvature="0" /><path
         d="m 495.008,246.34 c 0.105,-13.02 6.308,-19.106 15.332,-19.106 6.719,0 10.5,2.621 13.125,4.829 1.047,-0.84 1.57,-2.629 1.57,-3.579 0,-2.617 -6.922,-8.601 -18.582,-8.601 -12.91,0 -22.566,7.351 -22.566,25.617 0,18.262 11.023,27.605 22.984,27.605 11.867,0 17.856,-7.238 17.856,-17.746 0,-2.722 -0.532,-6.394 -1.262,-9.019 z m 18.379,5.562 c 0.207,0.942 0.527,2.727 0.527,4.516 0,5.77 -2.109,10.699 -8.191,10.699 -6.196,0 -9.875,-4.929 -10.61,-15.215 h 18.274"
         style="fill:#231f20;fill-opacity:1;fill-rule:nonzero;stroke:none"
         id="path102"
         inkscape:connector-curvature="0" /><path
         d="m 580.379,227.02 7.656,-1.051 c 0,0 0.11,-0.41 0.11,-0.84 0,-1.887 -1.368,-3.149 -3.887,-3.359 l -13.86,-1.25 v 6.921 h -0.203 c -1.679,-2.207 -6.3,-7.558 -15.539,-7.558 -11.23,0 -16.484,6.609 -16.484,19.004 v 26.765 l -7.449,1.157 c 0,0 -0.11,0.632 -0.11,1.05 0,1.782 1.367,3.047 3.887,3.254 l 14.277,1.367 v -33.078 c 0,-9.547 5.039,-11.757 9.661,-11.757 5.347,0 8.914,2.316 11.335,5.043 v 32.964 l -7.46,1.157 c 0,0 -0.098,0.632 -0.098,1.05 0,1.782 1.367,3.047 3.887,3.254 l 14.277,1.367 v -45.46"
         style="fill:#231f20;fill-opacity:1;fill-rule:nonzero;stroke:none"
         id="path104"
         inkscape:connector-curvature="0" /><path
         d="m 624.168,266.074 h -14.387 v -30.652 c 0,-4.731 1.465,-8.613 6.723,-8.613 4.09,0 7.449,1.785 8.289,2.515 0.527,-0.84 0.945,-2.41 0.945,-3.457 0,-1.054 -3.679,-5.984 -13.23,-5.984 -9.551,0 -13.328,5.566 -13.328,13.64 v 32.551 h -7.871 c 0,0 -0.11,0.637 -0.11,0.946 0,1.996 1.258,3.148 3.25,3.566 l 5.149,1.262 2.414,14.175 h 7.769 v -14.175 h 15.539 l -1.152,-5.774"
         style="fill:#231f20;fill-opacity:1;fill-rule:nonzero;stroke:none"
         id="path106"
         inkscape:connector-curvature="0" /><path
         d="m 654.93,265.344 c -1.153,0.84 -3.778,2.097 -6.934,2.097 -3.457,0 -7.031,-1.472 -7.031,-5.878 0,-4.622 4.933,-7.352 9.973,-10.293 6.296,-3.782 13.015,-7.872 13.015,-16.27 0,-8.605 -7.137,-15.117 -18.68,-15.117 -5.878,0 -11.132,1.789 -13.332,3.152 -0.429,2.617 -0.742,5.356 -0.742,8.078 0,4.2 1.153,5.879 4.309,5.879 0.523,0 1.363,-0.105 1.363,-0.105 l 2.199,-8.918 c 1.055,-0.735 4.102,-2.102 7.149,-2.102 5.136,0 8.398,1.992 8.398,6.406 0,4.512 -5.039,7.036 -9.765,9.973 -6.407,4.094 -12.813,8.184 -12.813,17.219 0,8.18 7.141,13.64 17.219,13.64 6.094,0 10.398,-2.097 12.281,-3.875 0.207,-1.476 0.422,-3.683 0.422,-5.785 0,-3.672 -0.731,-6.082 -4.512,-6.082 -0.527,0 -1.258,0.11 -1.258,0.11 l -1.261,7.871"
         style="fill:#231f20;fill-opacity:1;fill-rule:nonzero;stroke:none"
         id="path108"
         inkscape:connector-curvature="0" /><path
         d="m 696.504,266.809 c -7.031,0 -13.117,-5.039 -13.117,-18.789 0,-13.223 5.136,-20.891 15.011,-20.891 6.504,0 10.282,3.359 11.961,5.039 0.95,-0.945 1.68,-2.625 1.68,-3.574 0,-2.625 -5.769,-8.711 -17.324,-8.711 -13.645,0 -22.461,8.601 -22.461,25.93 0,17.742 11.863,27.292 26.035,27.292 11.543,0 14.492,-5.664 14.492,-8.71 0,-2.832 -1.367,-5.457 -5.359,-6.297 -1.574,3.672 -3.984,8.711 -10.918,8.711"
         style="fill:#231f20;fill-opacity:1;fill-rule:nonzero;stroke:none"
         id="path110"
         inkscape:connector-curvature="0" /><path
         d="m 735.457,265.547 h 0.203 c 2.102,2.519 7.141,7.558 16.176,7.558 10.496,0 16.473,-6.191 16.473,-18.476 v -27.82 l 6.093,-1.36 c 1.055,-0.215 1.465,-0.527 1.465,-1.367 0,-1.047 -0.84,-2.629 -1.047,-2.937 h -23.828 c 0,0 -0.105,0.625 -0.105,0.945 0,1.887 1.261,2.832 3.254,3.469 l 3.464,1.25 v 26.558 c 0,8.93 -4.824,11.66 -10.183,11.66 -6.508,0 -9.973,-2.839 -11.965,-4.832 v -33.386 l 5.879,-1.36 c 1.047,-0.215 1.465,-0.527 1.465,-1.367 0,-1.047 -0.731,-2.629 -1.043,-2.937 h -23.84 c 0,0 -0.098,0.625 -0.098,0.945 0,1.887 1.258,2.832 3.25,3.469 l 3.672,1.25 v 63.726 l -7.449,1.047 c 0,0 -0.105,0.731 -0.105,1.16 0,1.778 1.367,3.039 3.882,3.254 l 14.387,1.359 v -31.808"
         style="fill:#231f20;fill-opacity:1;fill-rule:nonzero;stroke:none"
         id="path112"
         inkscape:connector-curvature="0" /><path
         d="m 792.371,246.34 c 0.098,-13.02 6.289,-19.106 15.324,-19.106 6.715,0 10.496,2.621 13.125,4.829 1.043,-0.84 1.571,-2.629 1.571,-3.579 0,-2.617 -6.934,-8.601 -18.582,-8.601 -12.911,0 -22.571,7.351 -22.571,25.617 0,18.262 11.028,27.605 22.989,27.605 11.867,0 17.851,-7.238 17.851,-17.746 0,-2.722 -0.527,-6.394 -1.258,-9.019 z m 18.367,5.562 c 0.207,0.942 0.52,2.727 0.52,4.516 0,5.77 -2.09,10.699 -8.184,10.699 -6.191,0 -9.863,-4.929 -10.605,-15.215 h 18.269"
         style="fill:#231f20;fill-opacity:1;fill-rule:nonzero;stroke:none"
         id="path114"
         inkscape:connector-curvature="0" /><path
         d="m 880.352,226.809 6.199,-1.36 c 1.047,-0.215 1.465,-0.527 1.465,-1.367 0,-1.047 -0.84,-2.629 -1.055,-2.937 h -23.828 c 0,0 -0.098,0.625 -0.098,0.945 0,1.887 1.25,2.832 3.25,3.469 l 3.469,1.25 v 26.558 c 0,8.93 -5.039,11.66 -10.184,11.66 -5.988,0 -9.875,-2.839 -12.082,-4.629 v -33.589 l 5.989,-1.36 c 1.05,-0.215 1.472,-0.527 1.472,-1.367 0,-1.047 -0.84,-2.629 -1.054,-2.937 h -23.829 c 0,0 -0.105,0.625 -0.105,0.945 0,1.887 1.258,2.723 3.25,3.469 l 3.684,1.25 v 38.843 l -7.454,1.157 c 0,0 -0.105,0.632 -0.105,1.05 0,1.782 1.355,3.047 3.875,3.254 l 14.277,1.367 -0.625,-7.351 h 0.313 c 2.832,3.047 7.558,7.976 17.219,7.976 10.293,0 15.957,-6.613 15.957,-18.476 v -27.82"
         style="fill:#231f20;fill-opacity:1;fill-rule:nonzero;stroke:none"
         id="path116"
         inkscape:connector-curvature="0" /><path
         d="m 953.848,258.625 v -0.219 c 10.183,-1.676 16.902,-7.449 16.902,-17 0,-11.758 -9.656,-20.261 -28.555,-20.261 h -26.668 c 0,0 -0.109,0.625 -0.109,1.152 0,1.68 0.84,3.152 3.574,3.777 l 4.414,1.055 v 60.676 L 917,289.277 c -1.055,0.203 -1.473,0.52 -1.473,1.153 0,0.949 0.731,2.207 1.161,3.156 h 24.667 c 18.68,0 27.61,-6.621 27.61,-18.273 0,-9.969 -6.086,-14.7 -15.117,-16.688 z m -13.442,28.555 h -5.672 v -26.457 h 5.567 c 11.972,0 17.012,5.879 17.012,13.332 0,8.613 -5.352,13.125 -16.907,13.125 z m 1.262,-32.551 h -6.934 v -27.078 h 6.309 c 12.277,0 17.734,5.769 17.734,13.965 0,7.761 -5.769,13.113 -17.109,13.113"
         style="fill:#231f20;fill-opacity:1;fill-rule:nonzero;stroke:none"
         id="path118"
         inkscape:connector-curvature="0" /><path
         d="m 1027.14,227.02 7.66,-1.051 c 0,0 0.11,-0.41 0.11,-0.84 0,-1.887 -1.37,-3.149 -3.89,-3.359 l -13.86,-1.25 v 6.921 h -0.2 c -1.68,-2.207 -6.3,-7.558 -15.53,-7.558 -11.246,0 -16.489,6.609 -16.489,19.004 v 26.765 l -7.453,1.157 c 0,0 -0.105,0.632 -0.105,1.05 0,1.782 1.363,3.047 3.887,3.254 l 14.277,1.367 v -33.078 c 0,-9.547 5.043,-11.757 9.653,-11.757 5.35,0 8.93,2.316 11.34,5.043 v 32.964 l -7.45,1.157 c 0,0 -0.11,0.632 -0.11,1.05 0,1.782 1.36,3.047 3.88,3.254 l 14.28,1.367 v -45.46"
         style="fill:#231f20;fill-opacity:1;fill-rule:nonzero;stroke:none"
         id="path120"
         inkscape:connector-curvature="0" /><path
         d="m 1090.34,226.809 6.19,-1.36 c 1.06,-0.215 1.48,-0.527 1.48,-1.367 0,-1.047 -0.85,-2.629 -1.05,-2.937 h -23.84 c 0,0 -0.1,0.625 -0.1,0.945 0,1.887 1.27,2.832 3.26,3.469 l 3.45,1.25 v 26.558 c 0,8.93 -5.03,11.66 -10.17,11.66 -5.99,0 -9.87,-2.839 -12.07,-4.629 v -33.589 l 5.97,-1.36 c 1.06,-0.215 1.48,-0.527 1.48,-1.367 0,-1.047 -0.84,-2.629 -1.05,-2.937 h -23.83 c 0,0 -0.11,0.625 -0.11,0.945 0,1.887 1.26,2.723 3.26,3.469 l 3.67,1.25 v 38.843 l -7.46,1.157 c 0,0 -0.1,0.632 -0.1,1.05 0,1.782 1.37,3.047 3.89,3.254 l 14.28,1.367 -0.63,-7.351 h 0.3 c 2.85,3.047 7.57,7.976 17.22,7.976 10.3,0 15.96,-6.613 15.96,-18.476 v -27.82"
         style="fill:#231f20;fill-opacity:1;fill-rule:nonzero;stroke:none"
         id="path122"
         inkscape:connector-curvature="0" /><path
         d="m 1148.52,227.02 7.66,-1.051 c 0,0 0.11,-0.41 0.11,-0.84 0,-1.887 -1.37,-3.149 -3.89,-3.359 l -13.86,-1.25 v 6.816 h -0.31 c -2.3,-3.254 -6.72,-7.453 -14.9,-7.453 -10.29,0 -19.95,6.609 -19.95,24.883 0,19.519 13.64,28.339 27.08,28.339 3.04,0 5.67,-0.515 7.46,-0.949 v 18.379 l -7.46,1.047 c 0,0 -0.1,0.731 -0.1,1.16 0,1.778 1.37,3.039 3.89,3.254 l 14.27,1.359 z m -10.6,36.64 c -1.58,1.469 -4.42,3.149 -8.82,3.149 -8.51,0 -14.81,-6.086 -14.81,-19.946 0,-13.543 5.89,-19.004 12.91,-19.004 6.1,0 9.35,2.832 10.72,4.414 v 31.387"
         style="fill:#231f20;fill-opacity:1;fill-rule:nonzero;stroke:none"
         id="path124"
         inkscape:connector-curvature="0" /><path
         d="m 1173.41,246.34 c 0.09,-13.02 6.29,-19.106 15.32,-19.106 6.72,0 10.5,2.621 13.13,4.829 1.04,-0.84 1.57,-2.629 1.57,-3.579 0,-2.617 -6.94,-8.601 -18.59,-8.601 -12.91,0 -22.57,7.351 -22.57,25.617 0,18.262 11.03,27.605 22.99,27.605 11.87,0 17.85,-7.238 17.85,-17.746 0,-2.722 -0.52,-6.394 -1.25,-9.019 z m 18.37,5.562 c 0.2,0.942 0.51,2.727 0.51,4.516 0,5.77 -2.09,10.699 -8.18,10.699 -6.19,0 -9.86,-4.929 -10.61,-15.215 h 18.28"
         style="fill:#231f20;fill-opacity:1;fill-rule:nonzero;stroke:none"
         id="path126"
         inkscape:connector-curvature="0" /><path
         d="m 1235.98,265.344 c -1.15,0.84 -3.78,2.097 -6.93,2.097 -3.46,0 -7.03,-1.472 -7.03,-5.878 0,-4.622 4.93,-7.352 9.97,-10.293 6.3,-3.782 13.02,-7.872 13.02,-16.27 0,-8.605 -7.14,-15.117 -18.69,-15.117 -5.87,0 -11.12,1.789 -13.32,3.152 -0.43,2.617 -0.75,5.356 -0.75,8.078 0,4.2 1.16,5.879 4.31,5.879 0.53,0 1.37,-0.105 1.37,-0.105 l 2.2,-8.918 c 1.05,-0.735 4.1,-2.102 7.14,-2.102 5.14,0 8.4,1.992 8.4,6.406 0,4.512 -5.04,7.036 -9.76,9.973 -6.41,4.094 -12.82,8.184 -12.82,17.219 0,8.18 7.14,13.64 17.22,13.64 6.09,0 10.4,-2.097 12.29,-3.875 0.2,-1.476 0.42,-3.683 0.42,-5.785 0,-3.672 -0.74,-6.082 -4.52,-6.082 -0.52,0 -1.26,0.11 -1.26,0.11 l -1.26,7.871"
         style="fill:#231f20;fill-opacity:1;fill-rule:nonzero;stroke:none"
         id="path128"
         inkscape:connector-curvature="0" /><path
         d="m 1283.33,266.074 h -14.38 v -30.652 c 0,-4.731 1.47,-8.613 6.72,-8.613 4.1,0 7.45,1.785 8.29,2.515 0.53,-0.84 0.95,-2.41 0.95,-3.457 0,-1.054 -3.67,-5.984 -13.23,-5.984 -9.55,0 -13.33,5.566 -13.33,13.64 v 32.551 h -7.87 c 0,0 -0.11,0.637 -0.11,0.946 0,1.996 1.26,3.148 3.25,3.566 l 5.15,1.262 2.41,14.175 h 7.77 v -14.175 h 15.54 l -1.16,-5.774"
         style="fill:#231f20;fill-opacity:1;fill-rule:nonzero;stroke:none"
         id="path130"
         inkscape:connector-curvature="0" /><path
         d="m 1326.8,232.375 c 0,-4.199 1.58,-5.461 3.36,-5.461 2.41,0 3.68,1.262 3.99,1.785 0.53,-0.73 1.26,-2.207 1.26,-3.14 0,-1.371 -2.73,-5.469 -9.55,-5.469 -4.84,0 -7.88,2.105 -8.82,7.351 h -0.22 c -1.15,-1.992 -5.03,-7.558 -13.75,-7.558 -7.97,0 -13.65,5.461 -13.65,13.75 0,11.242 12.29,15.437 24.04,15.437 h 2.74 v 4.719 c 0,9.563 -2.52,13.328 -9.04,13.328 -2.41,0 -4.51,-0.73 -5.34,-1.043 -0.95,-1.992 -1.79,-5.676 -2.32,-9.238 0,0 -1.57,-0.106 -2.41,-0.106 -3.57,0 -5.56,1.676 -5.56,4.942 0,6.504 8.61,11.433 18.37,11.433 11.55,0 16.9,-6.296 16.9,-18.156 z m -13.02,11.441 c -8.5,-0.418 -13.33,-3.464 -13.33,-9.019 0,-4.414 2.52,-7.356 6.82,-7.356 4.31,0 7.56,2.832 8.93,4.512 v 11.973 l -2.42,-0.11"
         style="fill:#231f20;fill-opacity:1;fill-rule:nonzero;stroke:none"
         id="path132"
         inkscape:connector-curvature="0" /><path
         d="m 1386.45,265.867 h -8.51 c 2,-2.625 3.26,-5.777 3.26,-9.558 0,-11.121 -9.24,-17.422 -20.68,-17.422 -1.79,0 -3.36,0.207 -4.94,0.515 -1.47,-0.839 -2.94,-2.3 -2.94,-4.714 0,-2.52 1.68,-3.68 5.25,-3.68 h 12.18 c 9.66,0 15.11,-4.406 15.11,-11.965 0,-10.496 -10.28,-20.156 -28.02,-20.156 -12.91,0 -19.21,4.511 -19.21,12.176 0,7.343 5.77,10.812 9.55,11.972 v 0.207 c -2.73,1.477 -4.31,3.992 -4.31,7.356 0,6.082 5.57,8.914 7.56,9.968 v 0.204 c -5.88,2.628 -9.66,7.98 -9.66,15.539 0,11.027 9.24,16.796 19.95,16.796 2.84,0 5.57,-0.417 8.19,-1.257 h 18.38 z m -30.24,-44.304 c -1.47,0 -2.73,0.109 -3.88,0.207 -2.73,-1.575 -4.52,-4.204 -4.52,-7.766 0,-5.457 3.36,-8.926 11.03,-8.926 10.18,0 16.48,4.727 16.48,10.293 0,4.309 -2.42,6.192 -7.77,6.192 z m -4.62,34.636 c 0,-8.289 4.2,-11.543 9.45,-11.543 5.67,0 9.77,3.254 9.77,11.543 0,7.461 -4.1,11.242 -9.56,11.242 -5.46,0 -9.66,-3.156 -9.66,-11.242"
         style="fill:#231f20;fill-opacity:1;fill-rule:nonzero;stroke:none"
         id="path134"
         inkscape:connector-curvature="0" /><path
         d="m 1403.88,246.34 c 0.1,-13.02 6.3,-19.106 15.33,-19.106 6.72,0 10.49,2.621 13.12,4.829 1.05,-0.84 1.57,-2.629 1.57,-3.579 0,-2.617 -6.92,-8.601 -18.58,-8.601 -12.91,0 -22.57,7.351 -22.57,25.617 0,18.262 11.03,27.605 22.99,27.605 11.87,0 17.85,-7.238 17.85,-17.746 0,-2.722 -0.52,-6.394 -1.26,-9.019 z m 18.37,5.562 c 0.21,0.942 0.53,2.727 0.53,4.516 0,5.77 -2.11,10.699 -8.19,10.699 -6.19,0 -9.88,-4.929 -10.61,-15.215 h 18.27"
         style="fill:#231f20;fill-opacity:1;fill-rule:nonzero;stroke:none"
         id="path136"
         inkscape:connector-curvature="0" /><path
         d="m 1466.45,265.344 c -1.15,0.84 -3.77,2.097 -6.93,2.097 -3.46,0 -7.03,-1.472 -7.03,-5.878 0,-4.622 4.93,-7.352 9.97,-10.293 6.3,-3.782 13.02,-7.872 13.02,-16.27 0,-8.605 -7.14,-15.117 -18.68,-15.117 -5.89,0 -11.14,1.789 -13.34,3.152 -0.42,2.617 -0.74,5.356 -0.74,8.078 0,4.2 1.16,5.879 4.31,5.879 0.53,0 1.37,-0.105 1.37,-0.105 l 2.19,-8.918 c 1.06,-0.735 4.11,-2.102 7.15,-2.102 5.14,0 8.4,1.992 8.4,6.406 0,4.512 -5.04,7.036 -9.76,9.973 -6.41,4.094 -12.82,8.184 -12.82,17.219 0,8.18 7.14,13.64 17.22,13.64 6.09,0 10.4,-2.097 12.29,-3.875 0.2,-1.476 0.41,-3.683 0.41,-5.785 0,-3.672 -0.73,-6.082 -4.51,-6.082 -0.52,0 -1.26,0.11 -1.26,0.11 l -1.26,7.871"
         style="fill:#231f20;fill-opacity:1;fill-rule:nonzero;stroke:none"
         id="path138"
         inkscape:connector-curvature="0" /><path
         d="m 545,835.297 h 15 v -200 h -35 v 200 h 20"
         style="fill:#f2cf04;fill-opacity:1;fill-rule:nonzero;stroke:none"
         id="path140"
         inkscape:connector-curvature="0" /><path
         d="m 545,1036.3 h 15 V 835.297 H 525 V 1036.3 h 20"
         style="fill:#ed1c24;fill-opacity:1;fill-rule:nonzero;stroke:none"
         id="path142"
         inkscape:connector-curvature="0" /><path
         d="M 560,1235.29 V 1035.3 h -35 v 199.99 h 35"
         style="fill:#231f20;fill-opacity:1;fill-rule:nonzero;stroke:none"
         id="path144"
         inkscape:connector-curvature="0" /><path
         d="m 677.48,1216.46 c 0,-2.85 -0.359,-5.35 -1.074,-7.5 -0.711,-2.14 -1.683,-3.98 -2.914,-5.53 -1.23,-1.54 -2.656,-2.79 -4.285,-3.75 -1.625,-0.95 -3.312,-1.66 -5.055,-2.14 v -0.24 c 2.141,-0.39 4.145,-1.15 6.008,-2.26 1.863,-1.11 3.492,-2.5 4.879,-4.16 1.391,-1.67 2.5,-3.63 3.332,-5.89 0.832,-2.26 1.25,-4.74 1.25,-7.44 0,-3.25 -0.555,-6.23 -1.668,-8.92 -1.109,-2.7 -2.836,-5.04 -5.176,-7.02 -2.339,-1.99 -5.293,-3.54 -8.863,-4.65 -3.57,-1.11 -7.816,-1.66 -12.734,-1.66 h -16.778 v 82.11 h 15.825 c 4.839,0 8.988,-0.5 12.437,-1.49 3.449,-0.99 6.285,-2.4 8.508,-4.22 2.223,-1.83 3.828,-4.03 4.82,-6.61 0.992,-2.58 1.488,-5.45 1.488,-8.63 z m -10.472,-0.35 c 0,3.8 -1.352,6.94 -4.047,9.4 -2.695,2.45 -6.941,3.69 -12.734,3.69 h -5.473 v -28.32 h 5.355 c 5.551,0 9.758,1.34 12.614,4.04 2.855,2.7 4.285,6.43 4.285,11.19 z m 1.547,-37.84 c 0,4.44 -1.45,7.95 -4.344,10.53 -2.895,2.58 -7.039,3.86 -12.438,3.86 h -7.019 v -28.8 h 6.426 c 6.109,0 10.531,1.21 13.269,3.64 2.739,2.41 4.106,6 4.106,10.77 z m 63.785,-22.97 h -8.809 v 6.42 h -0.238 c -0.238,-0.47 -0.754,-1.17 -1.547,-2.08 -0.793,-0.91 -1.805,-1.78 -3.031,-2.62 -1.231,-0.83 -2.719,-1.56 -4.465,-2.2 -1.746,-0.63 -3.687,-0.95 -5.832,-0.95 -2.539,0 -4.816,0.38 -6.84,1.13 -2.023,0.75 -3.75,1.96 -5.18,3.63 -1.425,1.67 -2.515,3.83 -3.269,6.48 -0.754,2.66 -1.133,5.94 -1.133,9.82 v 37.49 h 9.641 v -36.78 c 0,-4.75 0.773,-8.14 2.32,-10.17 1.547,-2.02 3.945,-3.03 7.199,-3.03 2.778,0 5.117,0.69 7.02,2.08 1.906,1.39 3.414,2.76 4.523,4.11 v 43.79 h 9.641 z m 45.933,0 v 36.77 c 0,4.84 -0.812,8.31 -2.441,10.41 -1.625,2.1 -4.105,3.15 -7.437,3.15 -2.856,0 -5.235,-0.71 -7.141,-2.14 -1.902,-1.43 -3.41,-2.81 -4.52,-4.16 v -44.03 h -9.64 v 57.12 h 8.804 v -6.43 h 0.239 c 0.238,0.48 0.754,1.17 1.547,2.08 0.793,0.91 1.828,1.79 3.093,2.62 1.27,0.83 2.778,1.57 4.524,2.2 1.746,0.64 3.73,0.95 5.949,0.95 2.539,0 4.84,-0.37 6.902,-1.13 2.063,-0.75 3.809,-1.96 5.239,-3.62 1.425,-1.67 2.539,-3.83 3.332,-6.49 0.793,-2.66 1.187,-5.93 1.187,-9.82 v -37.48 z m 21.418,27.72 c 0,5.8 0.754,10.64 2.262,14.52 1.508,3.89 3.449,7.02 5.832,9.4 2.379,2.38 5.074,4.07 8.09,5.06 3.016,0.99 6.031,1.49 9.047,1.49 1.824,0 3.41,-0.14 4.758,-0.42 1.347,-0.28 2.461,-0.61 3.332,-1.01 v 27.37 l 9.64,1.07 v -85.2 h -8.808 v 6.07 h -0.239 c -0.238,-0.48 -0.671,-1.14 -1.308,-1.97 -0.633,-0.83 -1.508,-1.66 -2.617,-2.5 -1.11,-0.83 -2.5,-1.54 -4.164,-2.14 -1.668,-0.59 -3.61,-0.89 -5.832,-0.89 -2.696,0 -5.254,0.53 -7.676,1.61 -2.418,1.07 -4.539,2.77 -6.367,5.11 -1.825,2.34 -3.27,5.36 -4.34,9.05 -1.074,3.68 -1.61,8.15 -1.61,13.38 z m 22.61,-20.58 c 1.508,0 2.855,0.2 4.047,0.59 1.191,0.4 2.222,0.9 3.093,1.49 0.875,0.59 1.61,1.21 2.204,1.84 0.593,0.64 1.05,1.19 1.367,1.67 v 35.22 c -0.871,0.56 -1.883,1.04 -3.035,1.43 -1.149,0.4 -2.598,0.6 -4.344,0.6 -2.219,0 -4.305,-0.38 -6.246,-1.13 -1.946,-0.76 -3.629,-2.01 -5.059,-3.75 -1.426,-1.75 -2.558,-4.01 -3.39,-6.79 -0.833,-2.77 -1.25,-6.18 -1.25,-10.23 0,-3.97 0.335,-7.28 1.011,-9.93 0.676,-2.66 1.606,-4.81 2.797,-6.43 1.192,-1.63 2.539,-2.8 4.047,-3.51 1.508,-0.72 3.094,-1.07 4.758,-1.07 z m 71.758,30.7 c 0,-2.46 -0.079,-4.58 -0.239,-6.37 -0.16,-1.78 -0.316,-3.35 -0.476,-4.7 h -29.153 c 0.317,-6.74 1.762,-11.7 4.344,-14.87 2.578,-3.18 6.285,-4.76 11.125,-4.76 1.664,0 3.172,0.2 4.524,0.59 1.347,0.4 2.515,0.88 3.507,1.43 0.993,0.56 1.825,1.11 2.5,1.67 0.676,0.55 1.172,0.99 1.489,1.3 l 3.57,-6.78 c -0.398,-0.4 -0.992,-0.97 -1.785,-1.72 -0.793,-0.76 -1.863,-1.51 -3.215,-2.27 -1.348,-0.75 -3.016,-1.4 -4.996,-1.96 -1.984,-0.55 -4.324,-0.83 -7.024,-0.83 -3.57,0 -6.8,0.59 -9.695,1.78 -2.898,1.19 -5.355,3.04 -7.379,5.54 -2.023,2.5 -3.59,5.67 -4.703,9.52 -1.109,3.84 -1.664,8.47 -1.664,13.86 0,5.08 0.574,9.46 1.727,13.15 1.148,3.69 2.714,6.73 4.699,9.1 1.984,2.38 4.285,4.15 6.902,5.3 2.617,1.15 5.434,1.72 8.449,1.72 5.473,0 9.758,-1.72 12.852,-5.17 3.094,-3.45 4.641,-8.63 4.641,-15.53 z m -18.086,12.85 c -3.414,0 -6.149,-1.43 -8.211,-4.28 -2.067,-2.86 -3.254,-6.98 -3.571,-12.38 h 20.825 c 0.078,0.4 0.136,0.97 0.179,1.73 0.039,0.75 0.059,1.57 0.059,2.44 0,3.96 -0.793,7.04 -2.383,9.22 -1.586,2.18 -3.887,3.27 -6.898,3.27 z m 55.57,-5.11 c -0.633,0.71 -1.785,1.68 -3.449,2.91 -1.668,1.23 -3.848,1.84 -6.547,1.84 -2.539,0 -4.481,-0.59 -5.828,-1.78 -1.352,-1.19 -2.024,-2.62 -2.024,-4.28 0,-2.15 0.614,-3.91 1.844,-5.3 1.231,-1.39 3.113,-2.88 5.652,-4.46 l 3.571,-2.15 c 3.886,-2.3 6.941,-4.77 9.164,-7.43 2.219,-2.66 3.332,-6.09 3.332,-10.3 0,-4.52 -1.57,-8.32 -4.703,-11.42 -3.133,-3.09 -7.633,-4.64 -13.504,-4.64 -2.305,0 -4.324,0.24 -6.071,0.71 -1.746,0.48 -3.273,1.03 -4.582,1.67 -1.308,0.63 -2.398,1.33 -3.273,2.08 -0.871,0.76 -1.586,1.45 -2.141,2.08 l 4.641,7.62 c 0.477,-0.48 1.051,-1.03 1.727,-1.67 0.671,-0.63 1.488,-1.25 2.437,-1.84 0.953,-0.59 2.024,-1.09 3.215,-1.49 1.187,-0.39 2.578,-0.59 4.164,-0.59 2.855,0 5.039,0.63 6.547,1.9 1.504,1.27 2.258,2.82 2.258,4.64 0,1.35 -0.176,2.52 -0.535,3.51 -0.356,0.99 -0.891,1.89 -1.606,2.68 -0.715,0.79 -1.586,1.55 -2.617,2.26 -1.031,0.71 -2.223,1.51 -3.57,2.38 l -3.571,2.26 c -3.57,2.31 -6.367,4.72 -8.39,7.26 -2.024,2.54 -3.036,5.79 -3.036,9.76 0,2.14 0.418,4.11 1.25,5.89 0.836,1.79 2.004,3.33 3.512,4.64 1.508,1.31 3.274,2.34 5.297,3.09 2.023,0.76 4.184,1.13 6.484,1.13 2.219,0 4.125,-0.21 5.711,-0.65 1.586,-0.44 2.957,-0.99 4.106,-1.67 1.152,-0.67 2.101,-1.34 2.855,-2.02 0.754,-0.67 1.371,-1.25 1.844,-1.72 z m 47.008,-45.58 v 36.77 c 0,4.68 -0.676,8.05 -2.024,10.11 -1.351,2.07 -3.531,3.1 -6.547,3.1 -1.585,0 -2.996,-0.2 -4.222,-0.6 -1.231,-0.39 -2.32,-0.89 -3.274,-1.48 -0.953,-0.6 -1.785,-1.25 -2.5,-1.97 -0.714,-0.71 -1.308,-1.35 -1.785,-1.9 v -44.03 h -9.636 v 57.12 h 8.804 v -6.43 h 0.238 c 0.399,0.64 0.993,1.41 1.786,2.32 0.793,0.91 1.785,1.79 2.972,2.62 1.192,0.83 2.578,1.53 4.168,2.08 1.586,0.56 3.371,0.83 5.356,0.83 6.504,0 11.105,-2.54 13.801,-7.61 0.554,0.79 1.308,1.65 2.261,2.56 0.953,0.91 2.063,1.74 3.332,2.5 1.27,0.75 2.699,1.37 4.285,1.84 1.586,0.48 3.332,0.71 5.234,0.71 11.59,0 17.38,-6.74 17.38,-20.23 v -38.31 h -9.64 v 36.77 c 0,4.68 -0.84,8.05 -2.5,10.11 -1.67,2.07 -4.13,3.1 -7.38,3.1 -2.695,0 -4.937,-0.66 -6.722,-1.97 -1.786,-1.31 -3.196,-2.56 -4.227,-3.74 0.16,-0.88 0.277,-1.81 0.359,-2.8 0.078,-0.99 0.118,-2.04 0.118,-3.16 v -38.31 z m 63.659,0 h -9.64 v 57.12 h 9.64 z m -4.76,70.92 c -1.98,0 -3.57,0.64 -4.75,1.91 -1.2,1.26 -1.79,2.93 -1.79,5 0,1.98 0.59,3.6 1.79,4.87 1.18,1.27 2.77,1.91 4.75,1.91 1.91,0 3.46,-0.64 4.64,-1.91 1.2,-1.27 1.79,-2.89 1.79,-4.87 0,-2.07 -0.59,-3.74 -1.79,-5 -1.18,-1.27 -2.73,-1.91 -4.64,-1.91 z m 50.7,-70.92 v 36.77 c 0,4.84 -0.81,8.31 -2.44,10.41 -1.63,2.1 -4.11,3.15 -7.44,3.15 -2.86,0 -5.23,-0.71 -7.14,-2.14 -1.9,-1.43 -3.41,-2.81 -4.52,-4.16 v -44.03 h -9.64 v 57.12 h 8.81 v -6.43 h 0.24 c 0.23,0.48 0.75,1.17 1.54,2.08 0.8,0.91 1.83,1.79 3.1,2.62 1.27,0.83 2.77,1.57 4.52,2.2 1.74,0.64 3.73,0.95 5.95,0.95 2.53,0 4.83,-0.37 6.9,-1.13 2.06,-0.75 3.81,-1.96 5.24,-3.62 1.42,-1.67 2.53,-3.83 3.33,-6.49 0.79,-2.66 1.19,-5.93 1.19,-9.82 v -37.48 z m 33.67,0 h -9.63 v 57.12 h 9.63 z m -4.75,70.92 c -1.99,0 -3.57,0.64 -4.77,1.91 -1.19,1.26 -1.78,2.93 -1.78,5 0,1.98 0.59,3.6 1.78,4.87 1.2,1.27 2.78,1.91 4.77,1.91 1.9,0 3.45,-0.64 4.64,-1.91 1.18,-1.27 1.78,-2.89 1.78,-4.87 0,-2.07 -0.6,-3.74 -1.78,-5 -1.19,-1.27 -2.74,-1.91 -4.64,-1.91 z m 44.14,-25.34 c -0.63,0.71 -1.78,1.68 -3.45,2.91 -1.66,1.23 -3.85,1.84 -6.54,1.84 -2.54,0 -4.49,-0.59 -5.83,-1.78 -1.35,-1.19 -2.03,-2.62 -2.03,-4.28 0,-2.15 0.62,-3.91 1.85,-5.3 1.23,-1.39 3.11,-2.88 5.65,-4.46 l 3.57,-2.15 c 3.89,-2.3 6.94,-4.77 9.16,-7.43 2.23,-2.66 3.34,-6.09 3.34,-10.3 0,-4.52 -1.57,-8.32 -4.7,-11.42 -3.14,-3.09 -7.64,-4.64 -13.51,-4.64 -2.3,0 -4.33,0.24 -6.07,0.71 -1.74,0.48 -3.27,1.03 -4.58,1.67 -1.31,0.63 -2.4,1.33 -3.27,2.08 -0.88,0.76 -1.59,1.45 -2.15,2.08 l 4.65,7.62 c 0.47,-0.48 1.05,-1.03 1.72,-1.67 0.68,-0.63 1.49,-1.25 2.44,-1.84 0.95,-0.59 2.02,-1.09 3.21,-1.49 1.19,-0.39 2.58,-0.59 4.17,-0.59 2.86,0 5.04,0.63 6.54,1.9 1.51,1.27 2.26,2.82 2.26,4.64 0,1.35 -0.18,2.52 -0.53,3.51 -0.36,0.99 -0.9,1.89 -1.61,2.68 -0.71,0.79 -1.59,1.55 -2.62,2.26 -1.03,0.71 -2.22,1.51 -3.57,2.38 l -3.57,2.26 c -3.56,2.31 -6.36,4.72 -8.38,7.26 -2.03,2.54 -3.04,5.79 -3.04,9.76 0,2.14 0.42,4.11 1.25,5.89 0.83,1.79 2,3.33 3.51,4.64 1.51,1.31 3.27,2.34 5.3,3.09 2.02,0.76 4.18,1.13 6.48,1.13 2.22,0 4.12,-0.21 5.71,-0.65 1.59,-0.44 2.96,-0.99 4.11,-1.67 1.15,-0.67 2.1,-1.34 2.86,-2.02 0.75,-0.67 1.36,-1.25 1.84,-1.72 z m 41.42,3.68 h -12.5 v -31.65 c 0,-4.05 0.52,-6.8 1.55,-8.27 1.03,-1.47 2.77,-2.2 5.23,-2.2 1.43,0 2.66,0.2 3.69,0.59 1.03,0.4 1.79,0.76 2.26,1.07 l 1.31,-7.73 c -0.39,-0.32 -1.35,-0.82 -2.85,-1.49 -1.51,-0.67 -3.53,-1.01 -6.07,-1.01 -4.92,0 -8.61,1.37 -11.07,4.11 -2.46,2.73 -3.69,7.27 -3.69,13.62 v 32.96 h -6.9 v 6.43 l 6.9,1.43 1.07,15.94 h 8.57 v -15.94 h 13.69 z m 46.76,-11.42 c 0,-2.46 -0.08,-4.58 -0.23,-6.37 -0.16,-1.78 -0.32,-3.35 -0.48,-4.7 h -29.16 c 0.32,-6.74 1.77,-11.7 4.35,-14.87 2.58,-3.18 6.29,-4.76 11.12,-4.76 1.67,0 3.18,0.2 4.53,0.59 1.34,0.4 2.52,0.88 3.51,1.43 0.99,0.56 1.82,1.11 2.5,1.67 0.67,0.55 1.17,0.99 1.48,1.3 l 3.57,-6.78 c -0.39,-0.4 -0.99,-0.97 -1.78,-1.72 -0.8,-0.76 -1.87,-1.51 -3.21,-2.27 -1.36,-0.75 -3.02,-1.4 -5,-1.96 -1.98,-0.55 -4.33,-0.83 -7.02,-0.83 -3.57,0 -6.81,0.59 -9.7,1.78 -2.9,1.19 -5.36,3.04 -7.38,5.54 -2.02,2.5 -3.59,5.67 -4.7,9.52 -1.11,3.84 -1.67,8.47 -1.67,13.86 0,5.08 0.58,9.46 1.73,13.15 1.15,3.69 2.72,6.73 4.7,9.1 1.98,2.38 4.28,4.15 6.9,5.3 2.62,1.15 5.44,1.72 8.45,1.72 5.48,0 9.76,-1.72 12.85,-5.17 3.1,-3.45 4.64,-8.63 4.64,-15.53 z m -18.09,12.85 c -3.41,0 -6.14,-1.43 -8.21,-4.28 -2.06,-2.86 -3.25,-6.98 -3.57,-12.38 h 20.83 c 0.08,0.4 0.14,0.97 0.18,1.73 0.04,0.75 0.06,1.57 0.06,2.44 0,3.96 -0.8,7.04 -2.38,9.22 -1.59,2.18 -3.89,3.27 -6.91,3.27 z m 56.06,-2.02 c -0.24,0.16 -0.76,0.35 -1.55,0.59 -0.79,0.24 -1.87,0.36 -3.22,0.36 -3.01,0 -5.37,-0.81 -7.07,-2.44 -1.71,-1.62 -2.92,-3.39 -3.64,-5.3 v -41.88 h -9.63 v 57.12 h 8.8 v -7.74 h 0.24 c 0.4,1.11 0.91,2.2 1.55,3.28 0.63,1.07 1.43,2.02 2.37,2.85 0.96,0.83 2.09,1.49 3.4,1.96 1.31,0.48 2.87,0.72 4.7,0.72 1.35,0 2.44,-0.12 3.27,-0.36 0.83,-0.24 1.49,-0.43 1.96,-0.59 z m 19.15,-48.67 h -9.63 v 57.12 h 9.63 z m -4.76,70.92 c -1.98,0 -3.57,0.64 -4.76,1.91 -1.19,1.26 -1.78,2.93 -1.78,5 0,1.98 0.59,3.6 1.78,4.87 1.19,1.27 2.78,1.91 4.76,1.91 1.91,0 3.45,-0.64 4.64,-1.91 1.2,-1.27 1.79,-2.89 1.79,-4.87 0,-2.07 -0.59,-3.74 -1.79,-5 -1.19,-1.27 -2.73,-1.91 -4.64,-1.91 z m 59.5,-70.92 h -8.8 v 6.42 h -0.24 c -0.24,-0.47 -0.76,-1.17 -1.55,-2.08 -0.79,-0.91 -1.8,-1.78 -3.03,-2.62 -1.23,-0.83 -2.72,-1.56 -4.47,-2.2 -1.74,-0.63 -3.68,-0.95 -5.83,-0.95 -2.53,0 -4.81,0.38 -6.84,1.13 -2.02,0.75 -3.75,1.96 -5.17,3.63 -1.43,1.67 -2.52,3.83 -3.28,6.48 -0.75,2.66 -1.13,5.94 -1.13,9.82 v 37.49 h 9.64 v -36.78 c 0,-4.75 0.77,-8.14 2.32,-10.17 1.55,-2.02 3.95,-3.03 7.2,-3.03 2.78,0 5.12,0.69 7.02,2.08 1.91,1.39 3.41,2.76 4.52,4.11 v 43.79 h 9.64 z m 44.75,0 v 36.77 c 0,4.68 -0.68,8.05 -2.03,10.11 -1.34,2.07 -3.52,3.1 -6.54,3.1 -1.59,0 -3,-0.2 -4.23,-0.6 -1.22,-0.39 -2.32,-0.89 -3.27,-1.48 -0.95,-0.6 -1.78,-1.25 -2.5,-1.97 -0.71,-0.71 -1.3,-1.35 -1.78,-1.9 v -44.03 h -9.64 v 57.12 h 8.81 v -6.43 h 0.23 c 0.4,0.64 1,1.41 1.79,2.32 0.79,0.91 1.78,1.79 2.97,2.62 1.19,0.83 2.58,1.53 4.17,2.08 1.59,0.56 3.37,0.83 5.35,0.83 6.51,0 11.11,-2.54 13.81,-7.61 0.55,0.79 1.31,1.65 2.26,2.56 0.95,0.91 2.06,1.74 3.33,2.5 1.27,0.75 2.7,1.37 4.29,1.84 1.58,0.48 3.33,0.71 5.23,0.71 11.58,0 17.38,-6.74 17.38,-20.23 v -38.31 h -9.65 v 36.77 c 0,4.68 -0.83,8.05 -2.5,10.11 -1.66,2.07 -4.12,3.1 -7.37,3.1 -2.7,0 -4.94,-0.66 -6.72,-1.97 -1.79,-1.31 -3.2,-2.56 -4.23,-3.74 0.16,-0.88 0.28,-1.81 0.36,-2.8 0.08,-0.99 0.12,-2.04 0.12,-3.16 v -38.31 z m -776.238,-92.28 c 0,5.8 0.754,10.64 2.258,14.52 1.507,3.89 3.453,7.02 5.832,9.4 2.378,2.38 5.078,4.07 8.093,5.06 3.012,0.99 6.028,1.49 9.043,1.49 1.825,0 3.41,-0.14 4.758,-0.42 1.352,-0.28 2.461,-0.61 3.332,-1.01 v 27.37 l 9.641,1.07 v -85.2 h -8.805 v 6.07 h -0.238 c -0.238,-0.48 -0.676,-1.14 -1.309,-1.97 -0.637,-0.83 -1.508,-1.66 -2.621,-2.5 -1.109,-0.83 -2.496,-1.54 -4.164,-2.14 -1.664,-0.59 -3.609,-0.89 -5.832,-0.89 -2.695,0 -5.254,0.53 -7.672,1.61 -2.422,1.07 -4.543,2.77 -6.367,5.11 -1.824,2.34 -3.273,5.36 -4.344,9.05 -1.07,3.68 -1.605,8.15 -1.605,13.38 z m 22.609,-20.58 c 1.508,0 2.856,0.2 4.043,0.59 1.191,0.4 2.223,0.9 3.098,1.49 0.871,0.59 1.605,1.21 2.199,1.84 0.598,0.64 1.051,1.19 1.367,1.67 v 35.22 c -0.871,0.56 -1.883,1.04 -3.031,1.43 -1.152,0.4 -2.602,0.6 -4.344,0.6 -2.223,0 -4.305,-0.38 -6.25,-1.13 -1.941,-0.76 -3.629,-2.01 -5.055,-3.75 -1.429,-1.75 -2.558,-4.01 -3.39,-6.79 -0.836,-2.77 -1.25,-6.18 -1.25,-10.23 0,-3.97 0.336,-7.28 1.012,-9.93 0.671,-2.66 1.605,-4.81 2.793,-6.43 1.191,-1.63 2.539,-2.8 4.046,-3.51 1.508,-0.72 3.094,-1.07 4.762,-1.07 z m 71.754,30.7 c 0,-2.46 -0.078,-4.58 -0.234,-6.37 -0.161,-1.78 -0.321,-3.35 -0.477,-4.7 h -29.156 c 0.316,-6.74 1.765,-11.7 4.344,-14.87 2.578,-3.18 6.289,-4.76 11.125,-4.76 1.668,0 3.175,0.2 4.523,0.59 1.348,0.4 2.52,0.88 3.512,1.43 0.988,0.56 1.824,1.11 2.5,1.67 0.672,0.55 1.168,0.99 1.484,1.3 l 3.57,-6.78 c -0.394,-0.4 -0.992,-0.97 -1.785,-1.72 -0.793,-0.76 -1.863,-1.51 -3.211,-2.27 -1.351,-0.75 -3.015,-1.4 -5,-1.96 -1.98,-0.55 -4.324,-0.83 -7.019,-0.83 -3.571,0 -6.805,0.59 -9.699,1.78 -2.895,1.19 -5.356,3.04 -7.379,5.54 -2.024,2.5 -3.59,5.67 -4.7,9.52 -1.113,3.84 -1.668,8.47 -1.668,13.86 0,5.08 0.579,9.46 1.727,13.15 1.152,3.69 2.719,6.73 4.699,9.1 1.985,2.38 4.285,4.15 6.903,5.3 2.621,1.15 5.433,1.72 8.449,1.72 5.476,0 9.758,-1.72 12.851,-5.17 3.094,-3.45 4.641,-8.63 4.641,-15.53 z m -18.086,12.85 c -3.41,0 -6.148,-1.43 -8.211,-4.28 -2.062,-2.86 -3.254,-6.98 -3.57,-12.38 h 20.824 c 0.078,0.4 0.141,0.97 0.18,1.73 0.039,0.75 0.058,1.57 0.058,2.44 0,3.96 -0.793,7.04 -2.379,9.22 -1.586,2.18 -3.886,3.27 -6.902,3.27 z m 55.574,-5.11 c -0.636,0.71 -1.785,1.68 -3.453,2.91 -1.664,1.23 -3.847,1.84 -6.543,1.84 -2.539,0 -4.484,-0.59 -5.832,-1.78 -1.347,-1.19 -2.023,-2.62 -2.023,-4.28 0,-2.15 0.613,-3.91 1.843,-5.3 1.231,-1.39 3.114,-2.88 5.653,-4.46 l 3.57,-2.15 c 3.887,-2.3 6.942,-4.77 9.164,-7.43 2.223,-2.66 3.332,-6.09 3.332,-10.3 0,-4.52 -1.566,-8.32 -4.699,-11.42 -3.137,-3.09 -7.637,-4.64 -13.508,-4.64 -2.301,0 -4.324,0.24 -6.07,0.71 -1.742,0.48 -3.274,1.03 -4.578,1.67 -1.313,0.63 -2.403,1.33 -3.274,2.08 -0.875,0.76 -1.59,1.45 -2.144,2.08 l 4.64,7.62 c 0.477,-0.48 1.051,-1.03 1.727,-1.67 0.676,-0.63 1.488,-1.25 2.441,-1.84 0.95,-0.59 2.024,-1.09 3.211,-1.49 1.192,-0.39 2.578,-0.59 4.164,-0.59 2.86,0 5.039,0.63 6.547,1.9 1.508,1.27 2.262,2.82 2.262,4.64 0,1.35 -0.18,2.52 -0.535,3.51 -0.36,0.99 -0.895,1.89 -1.61,2.68 -0.71,0.79 -1.585,1.55 -2.617,2.26 -1.031,0.71 -2.218,1.51 -3.57,2.38 l -3.57,2.26 c -3.571,2.31 -6.368,4.72 -8.387,7.26 -2.024,2.54 -3.035,5.79 -3.035,9.76 0,2.14 0.418,4.11 1.25,5.89 0.832,1.79 2.004,3.33 3.508,4.64 1.507,1.31 3.273,2.34 5.296,3.09 2.024,0.76 4.184,1.13 6.485,1.13 2.222,0 4.125,-0.21 5.715,-0.65 1.586,-0.44 2.953,-0.99 4.105,-1.67 1.149,-0.67 2.102,-1.34 2.856,-2.02 0.754,-0.67 1.367,-1.25 1.843,-1.72 z m 48.434,29.39 h -8.688 v 7.14 h 27.727 v -7.14 h -8.688 v -67.48 h 8.926 v -7.49 h -28.203 v 7.49 h 8.926 z m 61.879,-74.97 v 36.77 c 0,4.84 -0.813,8.31 -2.442,10.41 -1.625,2.1 -4.105,3.15 -7.437,3.15 -2.856,0 -5.234,-0.71 -7.141,-2.14 -1.902,-1.43 -3.41,-2.81 -4.519,-4.16 v -44.03 h -9.641 v 57.12 h 8.809 v -6.43 h 0.234 c 0.238,0.48 0.758,1.17 1.551,2.08 0.793,0.91 1.824,1.79 3.094,2.62 1.265,0.83 2.773,1.57 4.519,2.2 1.746,0.64 3.731,0.95 5.949,0.95 2.539,0 4.84,-0.37 6.903,-1.13 2.062,-0.75 3.808,-1.96 5.238,-3.62 1.426,-1.67 2.539,-3.83 3.332,-6.49 0.793,-2.66 1.188,-5.93 1.188,-9.82 v -37.48 z m 55.215,0 v 36.77 c 0,4.84 -0.813,8.31 -2.438,10.41 -1.629,2.1 -4.105,3.15 -7.437,3.15 -2.86,0 -5.239,-0.71 -7.141,-2.14 -1.906,-1.43 -3.41,-2.81 -4.523,-4.16 v -44.03 h -9.637 v 57.12 h 8.805 v -6.43 h 0.238 c 0.238,0.48 0.754,1.17 1.547,2.08 0.793,0.91 1.824,1.79 3.093,2.62 1.27,0.83 2.778,1.57 4.524,2.2 1.742,0.64 3.726,0.95 5.949,0.95 2.539,0 4.84,-0.37 6.902,-1.13 2.063,-0.75 3.805,-1.96 5.235,-3.62 1.43,-1.67 2.539,-3.83 3.332,-6.49 0.793,-2.66 1.191,-5.93 1.191,-9.82 v -37.48 z m 60.691,37.84 c 0,-2.46 -0.078,-4.58 -0.238,-6.37 -0.16,-1.78 -0.317,-3.35 -0.477,-4.7 h -29.156 c 0.316,-6.74 1.766,-11.7 4.344,-14.87 2.578,-3.18 6.289,-4.76 11.129,-4.76 1.664,0 3.171,0.2 4.519,0.59 1.352,0.4 2.52,0.88 3.512,1.43 0.992,0.56 1.824,1.11 2.5,1.67 0.672,0.55 1.168,0.99 1.484,1.3 l 3.571,-6.78 c -0.395,-0.4 -0.993,-0.97 -1.786,-1.72 -0.793,-0.76 -1.863,-1.51 -3.211,-2.27 -1.347,-0.75 -3.015,-1.4 -5,-1.96 -1.98,-0.55 -4.324,-0.83 -7.019,-0.83 -3.57,0 -6.805,0.59 -9.699,1.78 -2.895,1.19 -5.356,3.04 -7.375,5.54 -2.024,2.5 -3.59,5.67 -4.703,9.52 -1.11,3.84 -1.664,8.47 -1.664,13.86 0,5.08 0.574,9.46 1.722,13.15 1.153,3.69 2.719,6.73 4.703,9.1 1.981,2.38 4.282,4.15 6.903,5.3 2.617,1.15 5.433,1.72 8.449,1.72 5.473,0 9.758,-1.72 12.851,-5.17 3.094,-3.45 4.641,-8.63 4.641,-15.53 z m -18.09,12.85 c -3.41,0 -6.148,-1.43 -8.211,-4.28 -2.062,-2.86 -3.254,-6.98 -3.57,-12.38 h 20.824 c 0.082,0.4 0.141,0.97 0.18,1.73 0.039,0.75 0.058,1.57 0.058,2.44 0,3.96 -0.793,7.04 -2.378,9.22 -1.586,2.18 -3.887,3.27 -6.903,3.27 z m 56.048,-2.02 c -0.24,0.16 -0.75,0.35 -1.54,0.59 -0.8,0.24 -1.87,0.36 -3.22,0.36 -3.01,0 -5.37,-0.81 -7.08,-2.44 -1.7,-1.62 -2.91,-3.39 -3.63,-5.3 v -41.88 h -9.64 v 57.12 h 8.81 v -7.74 h 0.24 c 0.4,1.11 0.91,2.2 1.54,3.28 0.64,1.07 1.43,2.02 2.38,2.85 0.96,0.83 2.08,1.49 3.4,1.96 1.31,0.48 2.87,0.72 4.7,0.72 1.34,0 2.44,-0.12 3.27,-0.36 0.83,-0.24 1.49,-0.43 1.96,-0.59 z m 40.7,-48.67 v 36.77 c 0,4.84 -0.81,8.31 -2.44,10.41 -1.62,2.1 -4.1,3.15 -7.44,3.15 -2.85,0 -5.23,-0.71 -7.14,-2.14 -1.9,-1.43 -3.41,-2.81 -4.52,-4.16 v -44.03 h -9.64 v 57.12 h 8.81 v -6.43 h 0.24 c 0.23,0.48 0.75,1.17 1.54,2.08 0.8,0.91 1.83,1.79 3.1,2.62 1.27,0.83 2.77,1.57 4.52,2.2 1.75,0.64 3.73,0.95 5.95,0.95 2.54,0 4.84,-0.37 6.9,-1.13 2.06,-0.75 3.81,-1.96 5.24,-3.62 1.43,-1.67 2.53,-3.83 3.33,-6.49 0.79,-2.66 1.19,-5.93 1.19,-9.82 v -37.48 z m 22.49,6.78 c 0,2.14 0.62,3.75 1.84,4.82 1.23,1.07 2.68,1.61 4.35,1.61 2.3,0 4.19,-0.96 5.65,-2.86 1.47,-1.9 2.2,-4.84 2.2,-8.81 0,-2.69 -0.41,-5.05 -1.25,-7.08 -0.83,-2.02 -1.92,-3.76 -3.27,-5.23 -1.35,-1.47 -2.84,-2.68 -4.46,-3.63 -1.63,-0.95 -3.24,-1.71 -4.82,-2.26 l -2.02,4.16 c 2.46,1.27 4.48,2.8 6.07,4.58 1.58,1.79 2.45,4.42 2.61,7.92 h -0.35 c -1.83,0 -3.38,0.57 -4.64,1.72 -1.27,1.15 -1.91,2.84 -1.91,5.06 z m 73.42,42.48 h -11.66 v -49.26 h -9.64 v 49.26 h -6.9 v 6.43 l 6.9,1.31 v 11.42 c 0,3.1 0.44,5.75 1.31,7.98 0.88,2.22 2.02,4.04 3.45,5.47 1.43,1.43 3.1,2.46 5,3.09 1.91,0.64 3.93,0.95 6.07,0.95 2.06,0 3.81,-0.27 5.23,-0.83 1.43,-0.55 2.39,-0.99 2.86,-1.31 l -2.02,-7.97 c -0.48,0.32 -1.15,0.65 -2.02,1.01 -0.88,0.36 -1.95,0.54 -3.22,0.54 -2.3,0 -4.04,-0.72 -5.23,-2.15 -1.19,-1.42 -1.79,-4.04 -1.79,-7.85 v -10.23 h 12.85 z m 49.51,-49.26 h -8.81 v 6.42 h -0.24 c -0.23,-0.47 -0.75,-1.17 -1.54,-2.08 -0.8,-0.91 -1.81,-1.78 -3.04,-2.62 -1.23,-0.83 -2.71,-1.56 -4.46,-2.2 -1.75,-0.63 -3.69,-0.95 -5.83,-0.95 -2.54,0 -4.82,0.38 -6.84,1.13 -2.02,0.75 -3.75,1.96 -5.18,3.63 -1.43,1.67 -2.52,3.83 -3.27,6.48 -0.75,2.66 -1.13,5.94 -1.13,9.82 v 37.49 h 9.64 v -36.78 c 0,-4.75 0.77,-8.14 2.32,-10.17 1.54,-2.02 3.94,-3.03 7.2,-3.03 2.77,0 5.11,0.69 7.02,2.08 1.9,1.39 3.41,2.76 4.52,4.11 v 43.79 h 9.64 z m -23.68,73.54 c 0,-1.82 -0.56,-3.29 -1.67,-4.4 -1.11,-1.12 -2.46,-1.67 -4.04,-1.67 -1.59,0 -2.94,0.55 -4.05,1.67 -1.11,1.11 -1.67,2.58 -1.67,4.4 0,1.82 0.56,3.29 1.67,4.4 1.11,1.11 2.46,1.67 4.05,1.67 1.58,0 2.93,-0.56 4.04,-1.67 1.11,-1.11 1.67,-2.58 1.67,-4.4 z m 18.32,0 c 0,-1.82 -0.55,-3.29 -1.66,-4.4 -1.11,-1.12 -2.46,-1.67 -4.05,-1.67 -1.59,0 -2.93,0.55 -4.05,1.67 -1.11,1.11 -1.66,2.58 -1.66,4.4 0,1.82 0.55,3.29 1.66,4.4 1.12,1.11 2.46,1.67 4.05,1.67 1.59,0 2.94,-0.56 4.05,-1.67 1.11,-1.11 1.66,-2.58 1.66,-4.4 z m 45.22,-24.87 c -0.23,0.16 -0.75,0.35 -1.54,0.59 -0.8,0.24 -1.87,0.36 -3.22,0.36 -3.01,0 -5.37,-0.81 -7.08,-2.44 -1.7,-1.62 -2.91,-3.39 -3.63,-5.3 v -41.88 h -9.64 v 57.12 h 8.81 v -7.74 h 0.24 c 0.4,1.11 0.91,2.2 1.54,3.28 0.64,1.07 1.43,2.02 2.39,2.85 0.95,0.83 2.08,1.49 3.39,1.96 1.31,0.48 2.87,0.72 4.7,0.72 1.34,0 2.44,-0.12 3.27,-0.36 0.83,-0.24 1.49,-0.43 1.96,-0.59 z m 77.12,12.49 c 0,-2.85 -0.36,-5.35 -1.08,-7.5 -0.71,-2.14 -1.68,-3.98 -2.91,-5.53 -1.23,-1.54 -2.66,-2.79 -4.29,-3.75 -1.62,-0.95 -3.31,-1.66 -5.05,-2.14 v -0.24 c 2.14,-0.39 4.14,-1.15 6.01,-2.26 1.86,-1.11 3.49,-2.5 4.88,-4.16 1.38,-1.67 2.5,-3.63 3.33,-5.89 0.83,-2.26 1.25,-4.74 1.25,-7.44 0,-3.25 -0.56,-6.23 -1.67,-8.92 -1.11,-2.7 -2.84,-5.04 -5.18,-7.02 -2.34,-1.99 -5.29,-3.54 -8.86,-4.65 -3.57,-1.11 -7.82,-1.66 -12.73,-1.66 h -16.78 v 82.11 h 15.82 c 4.84,0 8.99,-0.5 12.44,-1.49 3.45,-0.99 6.29,-2.4 8.51,-4.22 2.22,-1.83 3.83,-4.03 4.82,-6.61 0.99,-2.58 1.49,-5.45 1.49,-8.63 z m -10.48,-0.35 c 0,3.8 -1.35,6.94 -4.04,9.4 -2.7,2.45 -6.94,3.69 -12.74,3.69 h -5.47 v -28.32 h 5.36 c 5.55,0 9.75,1.34 12.61,4.04 2.85,2.7 4.28,6.43 4.28,11.19 z m 1.55,-37.84 c 0,4.44 -1.45,7.95 -4.34,10.53 -2.9,2.58 -7.05,3.86 -12.44,3.86 h -7.02 v -28.8 h 6.43 c 6.11,0 10.53,1.21 13.27,3.64 2.73,2.41 4.1,6 4.1,10.77 z m 20.47,-8.45 c 0,3.33 0.63,6.11 1.9,8.32 1.27,2.23 2.98,4.03 5.12,5.42 2.14,1.39 4.66,2.38 7.56,2.98 2.89,0.59 5.97,0.89 9.22,0.89 h 2.97 v 5.47 c 0,4.84 -0.85,8.17 -2.56,10 -1.7,1.82 -4.1,2.73 -7.19,2.73 -2.86,0 -5.24,-0.61 -7.15,-1.84 -1.9,-1.23 -3.41,-2.32 -4.52,-3.27 l -4.04,6.42 c 0.63,0.64 1.44,1.35 2.44,2.15 0.99,0.79 2.2,1.54 3.62,2.26 1.43,0.71 3.06,1.31 4.88,1.78 1.83,0.48 3.89,0.71 6.19,0.71 5.87,0 10.32,-1.62 13.33,-4.88 3.01,-3.25 4.52,-8.48 4.52,-15.7 v -26.06 c 0,-2.46 0.08,-4.86 0.24,-7.2 0.16,-2.34 0.32,-3.91 0.48,-4.7 h -9.17 l -0.35,6.31 h -0.24 c -0.32,-0.72 -0.79,-1.53 -1.43,-2.45 -0.63,-0.91 -1.43,-1.74 -2.38,-2.5 -0.95,-0.75 -2.1,-1.4 -3.45,-1.96 -1.35,-0.55 -2.94,-0.83 -4.76,-0.83 -2.14,0 -4.14,0.4 -6.01,1.19 -1.86,0.79 -3.49,1.9 -4.88,3.33 -1.39,1.43 -2.46,3.11 -3.21,5.06 -0.76,1.94 -1.13,4.07 -1.13,6.37 z m 17.25,-7.74 c 1.35,0 2.54,0.2 3.57,0.6 1.04,0.39 1.93,0.87 2.68,1.42 0.75,0.56 1.39,1.17 1.91,1.85 0.51,0.67 0.96,1.25 1.36,1.72 v 12.62 l -3.09,-0.12 c -4.6,-0.16 -8.09,-0.96 -10.47,-2.38 -2.38,-1.43 -3.57,-3.73 -3.57,-6.9 0,-2.94 0.67,-5.14 2.02,-6.61 1.35,-1.47 3.21,-2.2 5.59,-2.2 z m 73.55,-6.78 h -8.81 v 6.42 h -0.24 c -0.24,-0.47 -0.75,-1.17 -1.55,-2.08 -0.79,-0.91 -1.8,-1.78 -3.03,-2.62 -1.23,-0.83 -2.72,-1.56 -4.46,-2.2 -1.75,-0.63 -3.69,-0.95 -5.84,-0.95 -2.53,0 -4.81,0.38 -6.84,1.13 -2.02,0.75 -3.75,1.96 -5.17,3.63 -1.43,1.67 -2.52,3.83 -3.27,6.48 -0.76,2.66 -1.14,5.94 -1.14,9.82 v 37.49 h 9.64 v -36.78 c 0,-4.75 0.78,-8.14 2.32,-10.17 1.55,-2.02 3.95,-3.03 7.2,-3.03 2.78,0 5.12,0.69 7.02,2.08 1.91,1.39 3.42,2.76 4.53,4.11 v 43.79 h 9.64 z M 672.363,915.297 h -8.808 v 6.426 h -0.239 c -0.238,-0.477 -0.753,-1.168 -1.546,-2.082 -0.793,-0.914 -1.805,-1.786 -3.032,-2.618 -1.23,-0.832 -2.718,-1.566 -4.465,-2.203 -1.746,-0.632 -3.687,-0.953 -5.832,-0.953 -2.539,0 -4.816,0.379 -6.839,1.133 -2.024,0.754 -3.75,1.965 -5.176,3.629 -1.43,1.668 -2.52,3.828 -3.274,6.484 -0.754,2.66 -1.132,5.934 -1.132,9.821 v 37.484 h 9.64 v -36.773 c 0,-4.758 0.774,-8.149 2.32,-10.172 1.547,-2.024 3.946,-3.035 7.2,-3.035 2.777,0 5.117,0.695 7.019,2.082 1.906,1.386 3.414,2.757 4.524,4.105 v 43.793 h 9.64 z m 45.934,0 v 36.769 c 0,4.84 -0.813,8.313 -2.442,10.414 -1.625,2.102 -4.105,3.153 -7.437,3.153 -2.855,0 -5.234,-0.711 -7.141,-2.141 -1.902,-1.429 -3.41,-2.816 -4.519,-4.164 v -44.031 h -9.641 v 57.121 h 8.809 v -6.426 h 0.234 c 0.238,0.477 0.754,1.168 1.547,2.082 0.793,0.91 1.828,1.785 3.098,2.617 1.265,0.832 2.773,1.567 4.519,2.204 1.746,0.632 3.731,0.949 5.949,0.949 2.54,0 4.84,-0.375 6.903,-1.129 2.062,-0.754 3.808,-1.965 5.238,-3.629 1.426,-1.668 2.539,-3.828 3.332,-6.484 0.793,-2.661 1.188,-5.934 1.188,-9.821 v -37.484 z m 21.418,27.726 c 0,5.793 0.754,10.633 2.262,14.52 1.507,3.887 3.453,7.02 5.832,9.398 2.379,2.383 5.078,4.067 8.089,5.059 3.016,0.992 6.032,1.488 9.047,1.488 1.825,0 3.41,-0.14 4.758,-0.418 1.352,-0.277 2.461,-0.613 3.332,-1.011 v 27.371 l 9.641,1.07 v -85.203 h -8.809 v 6.07 h -0.234 c -0.238,-0.476 -0.676,-1.133 -1.313,-1.965 -0.632,-0.832 -1.504,-1.664 -2.617,-2.5 -1.109,-0.832 -2.5,-1.547 -4.164,-2.14 -1.668,-0.594 -3.609,-0.895 -5.832,-0.895 -2.695,0 -5.254,0.535 -7.676,1.61 -2.418,1.07 -4.539,2.777 -6.367,5.117 -1.824,2.34 -3.269,5.355 -4.34,9.043 -1.07,3.687 -1.609,8.152 -1.609,13.386 z m 22.609,-20.585 c 1.508,0 2.86,0.199 4.047,0.593 1.192,0.399 2.223,0.895 3.094,1.489 0.875,0.593 1.609,1.21 2.203,1.843 0.594,0.637 1.051,1.192 1.367,1.668 v 35.223 c -0.871,0.555 -1.883,1.031 -3.035,1.43 -1.148,0.394 -2.598,0.593 -4.344,0.593 -2.218,0 -4.301,-0.379 -6.246,-1.129 -1.941,-0.753 -3.629,-2.003 -5.058,-3.75 -1.426,-1.746 -2.555,-4.007 -3.391,-6.785 -0.832,-2.773 -1.25,-6.187 -1.25,-10.23 0,-3.969 0.34,-7.281 1.012,-9.938 0.675,-2.66 1.605,-4.8 2.797,-6.425 1.191,-1.629 2.539,-2.797 4.046,-3.512 1.508,-0.715 3.094,-1.07 4.758,-1.07 z m 116.981,-7.141 h -10.356 v 37.367 h -33.914 v -37.367 h -10.351 v 82.109 h 10.351 v -36.531 h 33.914 v 36.531 h 10.356 z m 52.953,37.844 c 0,-2.461 -0.078,-4.582 -0.238,-6.368 -0.161,-1.785 -0.317,-3.351 -0.477,-4.703 h -29.152 c 0.316,-6.742 1.761,-11.699 4.343,-14.875 2.579,-3.172 6.286,-4.757 11.125,-4.757 1.664,0 3.172,0.199 4.524,0.593 1.347,0.399 2.515,0.875 3.508,1.43 0.992,0.555 1.824,1.109 2.5,1.664 0.675,0.555 1.172,0.992 1.488,1.309 l 3.57,-6.782 c -0.398,-0.398 -0.992,-0.972 -1.785,-1.726 -0.793,-0.754 -1.863,-1.508 -3.215,-2.262 -1.347,-0.754 -3.015,-1.406 -4.996,-1.961 -1.984,-0.555 -4.324,-0.836 -7.023,-0.836 -3.571,0 -6.801,0.598 -9.696,1.785 -2.898,1.192 -5.355,3.036 -7.379,5.536 -2.023,2.5 -3.589,5.671 -4.703,9.519 -1.109,3.848 -1.664,8.469 -1.664,13.863 0,5.078 0.575,9.461 1.727,13.153 1.148,3.687 2.715,6.722 4.699,9.101 1.984,2.379 4.285,4.145 6.902,5.297 2.618,1.149 5.434,1.723 8.45,1.723 5.472,0 9.757,-1.723 12.851,-5.176 3.094,-3.449 4.641,-8.629 4.641,-15.527 z m -18.086,12.851 c -3.414,0 -6.149,-1.429 -8.215,-4.285 -2.062,-2.855 -3.25,-6.98 -3.566,-12.375 h 20.824 c 0.078,0.395 0.137,0.973 0.18,1.727 0.039,0.75 0.058,1.562 0.058,2.437 0,3.969 -0.793,7.039 -2.383,9.223 -1.586,2.179 -3.886,3.273 -6.898,3.273 z m 40.578,-50.695 h -9.641 v 57.121 h 9.641 z m -4.762,70.926 c -1.98,0 -3.57,0.632 -4.758,1.902 -1.191,1.27 -1.785,2.934 -1.785,5 0,1.98 0.594,3.609 1.785,4.879 1.188,1.266 2.778,1.902 4.758,1.902 1.907,0 3.453,-0.636 4.641,-1.902 1.191,-1.27 1.785,-2.899 1.785,-4.879 0,-2.066 -0.594,-3.73 -1.785,-5 -1.188,-1.27 -2.734,-1.902 -4.641,-1.902 z m 49.504,-70.926 v 36.769 c 0,4.684 -0.672,8.055 -2.023,10.118 -1.348,2.062 -3.528,3.093 -6.543,3.093 -1.586,0 -2.996,-0.199 -4.227,-0.593 -1.226,-0.399 -2.32,-0.895 -3.269,-1.489 -0.953,-0.593 -1.785,-1.25 -2.5,-1.965 -0.715,-0.714 -1.309,-1.347 -1.785,-1.902 v -44.031 h -9.641 v 57.121 h 8.809 v -6.426 h 0.238 c 0.394,0.633 0.988,1.406 1.781,2.321 0.797,0.91 1.785,1.785 2.977,2.617 1.191,0.832 2.578,1.527 4.164,2.082 1.59,0.554 3.375,0.832 5.355,0.832 6.508,0 11.112,-2.539 13.802,-7.614 0.56,0.793 1.31,1.645 2.26,2.559 0.96,0.91 2.07,1.742 3.34,2.496 1.27,0.754 2.69,1.371 4.28,1.848 1.59,0.472 3.33,0.711 5.24,0.711 11.58,0 17.37,-6.742 17.37,-20.231 v -38.316 h -9.64 v 36.769 c 0,4.684 -0.83,8.055 -2.5,10.118 -1.66,2.062 -4.12,3.093 -7.37,3.093 -2.7,0 -4.95,-0.656 -6.73,-1.964 -1.78,-1.309 -3.19,-2.559 -4.22,-3.747 0.16,-0.875 0.27,-1.804 0.35,-2.796 0.08,-0.993 0.12,-2.043 0.12,-3.157 v -38.316 z m 50.698,14.519 c 0,3.332 0.63,6.11 1.9,8.329 1.27,2.222 2.98,4.027 5.12,5.414 2.14,1.39 4.66,2.382 7.56,2.976 2.89,0.594 5.96,0.891 9.22,0.891 h 2.97 v 5.476 c 0,4.836 -0.85,8.168 -2.56,9.996 -1.7,1.825 -4.1,2.735 -7.2,2.735 -2.85,0 -5.23,-0.613 -7.14,-1.844 -1.9,-1.23 -3.41,-2.32 -4.52,-3.273 l -4.04,6.425 c 0.63,0.637 1.45,1.352 2.44,2.145 0.99,0.793 2.2,1.547 3.63,2.262 1.42,0.711 3.05,1.308 4.88,1.785 1.82,0.472 3.88,0.711 6.18,0.711 5.87,0 10.32,-1.625 13.33,-4.879 3.02,-3.25 4.52,-8.488 4.52,-15.707 v -26.063 c 0,-2.457 0.08,-4.855 0.24,-7.195 0.16,-2.344 0.32,-3.91 0.48,-4.703 h -9.17 l -0.35,6.308 h -0.24 c -0.32,-0.714 -0.8,-1.527 -1.43,-2.441 -0.63,-0.91 -1.43,-1.746 -2.38,-2.5 -0.95,-0.754 -2.1,-1.406 -3.45,-1.961 -1.35,-0.555 -2.94,-0.836 -4.76,-0.836 -2.14,0 -4.15,0.399 -6.01,1.192 -1.86,0.793 -3.49,1.906 -4.88,3.332 -1.39,1.429 -2.46,3.113 -3.21,5.058 -0.76,1.942 -1.13,4.067 -1.13,6.367 z m 17.25,-7.738 c 1.35,0 2.54,0.199 3.57,0.598 1.03,0.394 1.93,0.871 2.68,1.426 0.75,0.554 1.39,1.171 1.9,1.847 0.52,0.672 0.98,1.246 1.37,1.723 v 12.613 l -3.09,-0.117 c -4.6,-0.16 -8.09,-0.953 -10.48,-2.379 -2.37,-1.43 -3.57,-3.73 -3.57,-6.902 0,-2.938 0.68,-5.137 2.03,-6.606 1.35,-1.468 3.21,-2.203 5.59,-2.203 z m 57.95,42.485 H 1112.9 V 932.91 c 0,-4.047 0.51,-6.805 1.55,-8.269 1.03,-1.469 2.77,-2.203 5.23,-2.203 1.43,0 2.66,0.199 3.69,0.593 1.03,0.399 1.79,0.754 2.26,1.071 l 1.31,-7.735 c -0.39,-0.316 -1.35,-0.812 -2.85,-1.488 -1.51,-0.672 -3.54,-1.012 -6.07,-1.012 -4.92,0 -8.61,1.371 -11.07,4.11 -2.46,2.734 -3.69,7.277 -3.69,13.625 v 32.961 h -6.9 v 6.425 l 6.9,1.43 1.07,15.945 h 8.57 v -15.945 h 13.69 l -1.2,-7.855"
         style="fill:#231f20;fill-opacity:1;fill-rule:nonzero;stroke:none"
         id="path146"
         inkscape:connector-curvature="0" /><path
         d="m 433.922,1165.39 c 10.234,-16.2 18.25,-15.92 30.351,-15.92 -10.015,7.67 -16.636,17.5 -19.793,22.51 l -18.699,29.93 c -1.828,9.24 -6.605,17.88 -13.761,24.3 2.406,0.92 4.406,1.88 5.613,2.79 -12.215,0 -24.313,6.2 -30.973,6.2 -4.281,0 -7.035,-2.56 -7.035,-5.94 0.277,-3.77 4.152,-7.61 11.32,-7.61 1.629,0 3.703,0.22 5.985,0.6 3.883,-5.41 7.011,-10.3 7.011,-17.28 0,-13.1 -15.664,-23.31 -31.476,-23.31 -0.895,0 -1.742,0.03 -2.637,0.1 -1.433,3.24 -6.195,8.7 -6.195,14.9 0,10.41 6.785,18.91 6.785,29.22 0,6.41 -3.125,10.37 -4.324,12.02 1.941,1.81 4.066,4.02 4.558,5.54 -1.125,-0.49 -2.461,-0.55 -4.418,-0.55 -7.578,0 -13.754,1.97 -19.781,1.97 -3.43,0 -4.359,-1.06 -4.359,-2.07 0,-0.37 0.058,-0.75 0.156,-0.93 -1.281,0.5 -2.484,0.82 -3.914,1.09 -1.773,0.34 -3.691,0.51 -5.731,0.51 -7.316,0 -9.917,-3.07 -9.917,-5.7 0,-2.22 1.75,-6.29 3.738,-9.38 2.855,1.43 6.277,2.41 7.847,2.41 3.879,0 7.336,-3.7 9.168,-8.09 -2.613,-0.31 -3.113,-0.43 -5.753,-0.43 -7.125,0 -11.973,2.56 -12.977,2.56 -0.098,0 -0.285,-0.05 -0.285,-0.2 0,-1.01 2.019,-3.65 6.004,-5.1 5.246,-1.92 13.109,-2.73 14.418,-2.94 0,-0.23 -1.332,-2.71 -2.817,-3.19 -0.316,-0.1 -0.562,-0.11 -0.926,-0.04 -5.484,1.09 -7.011,1.55 -13.964,4.19 -0.215,0.08 -0.34,-0.05 -0.34,-0.28 0,-2.74 7.121,-8.81 13.496,-11.14 -5.324,-6.8 -11.981,-13.76 -15.117,-24.37 -0.887,-0.07 -1.746,-0.1 -2.641,-0.1 -15.809,0 -31.476,10.21 -31.476,23.31 0,6.98 3.136,11.87 7.019,17.28 2.277,-0.38 4.352,-0.6 5.977,-0.6 7.168,0 11.046,3.84 11.332,7.61 0,3.38 -2.754,5.94 -7.047,5.94 -6.66,0 -18.75,-6.2 -30.973,-6.2 1.207,-0.91 3.211,-1.87 5.613,-2.79 -7.156,-6.42 -11.933,-15.06 -13.761,-24.3 l -18.696,-29.93 c -3.148,-5.01 -9.789,-14.84 -19.8,-22.51 12.101,0 20.125,-0.28 30.363,15.92 l 9.586,15.34 c 0.711,-2 1.586,-3.93 2.609,-5.83 l -19.066,-30.51 c -3.172,-5.06 -9.746,-14.8 -19.801,-22.52 12.102,0 20.121,-0.28 30.355,15.9 l 16.418,26.28 c 1.227,-1.31 2.52,-2.59 3.883,-3.81 l -23.164,-37.08 c -3.183,-5.07 -9.722,-14.78 -19.797,-22.5 12.102,0 20.121,-0.3 30.36,15.9 l 22.578,36.15 c 1.488,-0.94 3.012,-1.85 4.582,-2.72 l -27.563,-44.1 c -3.179,-5.07 -9.722,-14.76 -19.789,-22.5 12.098,0 20.121,-0.28 30.356,15.9 l 28.379,45.43 c 1.679,-0.65 3.382,-1.26 5.117,-1.82 l -32.07,-51.33 c -3.133,-5 -9.825,-14.86 -19.786,-22.5 12.094,0 20.118,-0.27 30.352,15.91 l 34.18,54.7 c 0.347,-0.05 0.691,-0.11 1.031,-0.18 0.93,-2.96 1.582,-5.72 1.582,-8.47 0,-17.19 -11.281,-32.37 -24.82,-44.09 0.863,-0.38 2.375,-0.51 3.769,-0.51 2.793,0 4.602,0.14 5.863,0.37 -3.136,-7.13 -9.871,-16.34 -13.277,-21.1 -4.434,0.8 -10.879,1.43 -15.102,1.43 -4.417,0 -4.917,-2.59 -4.917,-4.9 0,-4.01 1.875,-7.21 4.062,-8.98 0.816,2.05 2.469,4.79 10.633,4.79 0.156,0 0.437,-0.02 0.82,-0.05 -2.39,-2.65 -9.859,-8.69 -9.859,-13.55 0,-3.23 3.535,-8.05 8.187,-8.05 -0.277,1.04 -0.238,1.99 -0.238,2.71 0,3.94 3.484,8.55 6.437,11.76 -0.089,-0.95 -0.046,-0.86 -0.046,-1.97 0,-9.32 0.843,-13.59 6.754,-13.59 2.902,0 4.902,1.59 5.589,2.07 -3.839,3.53 -4.039,6.31 -4.039,11.53 0.012,1.36 0.016,2.69 0.035,4.52 0.016,1.19 -0.003,2.78 -0.199,3.92 2.117,0.29 2.973,0.29 4.602,0.29 0,0 8.394,0.67 10.418,-3.7 2.281,2.09 5.59,5.04 5.59,8.29 0,2.15 -1.02,4.58 -5.344,4.58 -1.637,0 -6.789,-1 -11.102,-1 1.157,2.58 6.317,10.11 10.782,15.58 0.675,-2.12 1.73,-4.41 4.074,-6.29 0.32,3.52 2.386,14.65 7.886,21.15 0.637,-4.39 1.5,-8.9 1.5,-18.42 0,-23.13 -5.558,-40.22 -17.371,-43.48 1.539,-2.68 4.786,-5.08 8.161,-5.08 4.316,0 6.671,4.88 9.07,9.49 1.25,-3.39 4.703,-11.73 8.16,-11.73 3.457,0 6.914,8.34 8.164,11.73 2.399,-4.61 4.75,-9.49 9.07,-9.49 3.375,0 6.629,2.4 8.164,5.08 -11.808,3.26 -17.375,20.35 -17.375,43.48 0,9.52 0.86,14.03 1.497,18.42 5.503,-6.5 7.574,-17.63 7.89,-21.15 2.348,1.88 3.406,4.17 4.078,6.29 4.465,-5.47 9.621,-13 10.782,-15.58 -4.317,0 -9.465,1 -11.102,1 -4.32,0 -5.344,-2.43 -5.344,-4.58 0,-3.25 3.313,-6.2 5.59,-8.29 2.02,4.37 10.422,3.7 10.422,3.7 1.625,0 2.48,0 4.602,-0.29 -0.2,-1.14 -0.211,-2.73 -0.204,-3.92 0.02,-1.83 0.028,-3.16 0.032,-4.52 0,-5.22 -0.196,-8 -4.036,-11.53 0.688,-0.48 2.692,-2.07 5.586,-2.07 5.914,0 6.758,4.27 6.758,13.59 0,1.11 0.035,1.02 -0.043,1.97 2.946,-3.21 6.438,-7.82 6.438,-11.76 0,-0.72 0.039,-1.67 -0.246,-2.71 4.66,0 8.191,4.82 8.191,8.05 0,4.86 -7.469,10.9 -9.859,13.55 0.386,0.03 0.664,0.05 0.816,0.05 8.172,0 9.817,-2.74 10.637,-4.79 2.183,1.77 4.058,4.97 4.058,8.98 0,2.31 -0.496,4.9 -4.914,4.9 -4.222,0 -10.668,-0.63 -15.105,-1.43 -3.402,4.76 -10.133,13.97 -13.277,21.1 1.265,-0.23 3.078,-0.37 5.863,-0.37 1.402,0 2.906,0.13 3.773,0.51 -13.539,11.72 -24.824,26.9 -24.824,44.09 0,2.75 0.656,5.51 1.582,8.47 0.34,0.07 0.691,0.13 1.035,0.18 l 34.176,-54.7 c 10.234,-16.18 18.262,-15.91 30.352,-15.91 -9.961,7.64 -16.649,17.5 -19.774,22.5 l -32.082,51.33 c 1.738,0.56 3.442,1.17 5.121,1.82 l 28.379,-45.43 c 10.234,-16.18 18.254,-15.9 30.359,-15.9 -10.074,7.74 -16.613,17.43 -19.792,22.5 l -27.563,44.1 c 1.566,0.87 3.098,1.78 4.574,2.72 l 22.59,-36.15 c 10.238,-16.2 18.25,-15.9 30.348,-15.9 -10.067,7.72 -16.602,17.43 -19.789,22.5 l -23.16,37.08 c 1.363,1.22 2.66,2.5 3.875,3.81 l 16.421,-26.28 c 10.235,-16.18 18.25,-15.9 30.356,-15.9 -10.063,7.72 -16.621,17.46 -19.801,22.52 l -19.066,30.51 c 1.027,1.9 1.898,3.83 2.613,5.83 z m -153.063,35.13 c 0,11.39 8.286,20.41 11.207,22.95 0.704,-0.17 1.403,-0.34 2.098,-0.48 -3.101,-3.79 -8.574,-10.13 -8.574,-18.53 0,-16.68 17.824,-31.16 38,-31.16 -0.129,-1.43 -0.199,-2.94 -0.199,-4.48 0,-2.46 0.132,-4.75 0.379,-6.91 -22.817,0.14 -42.911,18.66 -42.911,38.61 z m 30.918,-136.74 -0.129,-0.39 h 0.399 c 6.406,0 9.523,0.46 11.59,0.76 1.086,0.14 1.859,0.26 2.703,0.26 1.652,0 2.922,-0.16 2.922,-2.19 0,-1.38 -1.606,-3.54 -3.157,-4.8 -2.367,2.22 -5.632,2.66 -10.429,2.66 -2.246,0 -5.184,-0.4 -6.762,-0.62 l -0.246,-0.03 -0.277,-0.04 0.089,-0.75 c 0.188,-1.33 0.415,-2.98 0.415,-5.21 l -0.028,-2.02 -0.023,-2.51 c 0,-5.44 0.746,-8.54 2.648,-10.89 -0.492,-0.19 -1.289,-0.33 -1.804,-0.33 -3.375,0 -4.356,1.47 -4.356,11.21 0,1.95 -0.105,3.79 -0.176,5.01 l -0.093,1.81 -0.43,-0.33 c -5.02,-3.83 -10.192,-10.67 -10.5,-15.79 -1.516,0.98 -3.153,3.17 -3.153,4.85 0,2.79 4.196,6.98 9.055,11.83 l 2.797,2.8 0.352,0.36 -0.918,0.22 c -1.043,0.28 -2.985,0.76 -4.633,0.76 -5.453,0 -8.86,-1.02 -10.969,-3.32 -0.75,1.1 -1.387,3.64 -1.387,5.14 0,0.97 0.192,1.65 0.578,2.04 0.477,0.46 1.215,0.46 1.864,0.46 h 0.136 c 6,0 13.18,-1.08 15.985,-1.53 l 0.164,-0.04 0.105,0.14 c 0.485,0.65 11.93,15.89 14.907,23.98 0.679,0.25 1.277,0.45 2.468,0.45 2.254,0 2.879,-1.53 3.532,-3.85 -7.161,-8.69 -11.614,-15.45 -13.239,-20.1 z m 61.743,23.95 c 1.199,0 1.785,-0.2 2.476,-0.45 2.973,-8.09 14.418,-23.33 14.899,-23.98 l 0.105,-0.14 0.172,0.04 c 2.805,0.45 9.976,1.53 15.98,1.53 h 0.133 c 0.653,0 1.391,0 1.863,-0.46 0.387,-0.39 0.582,-1.07 0.582,-2.04 0,-1.5 -0.632,-4.04 -1.39,-5.14 -2.106,2.3 -5.512,3.32 -10.969,3.32 -1.644,0 -3.582,-0.48 -4.633,-0.76 l -0.429,-0.1 -0.493,-0.12 3.157,-3.16 c 4.855,-4.85 9.058,-9.04 9.058,-11.83 0,-1.68 -1.636,-3.87 -3.148,-4.85 -0.32,5.12 -5.488,11.96 -10.512,15.79 l -0.43,0.32 -0.082,-1.8 c -0.074,-1.22 -0.179,-3.06 -0.179,-5.01 0,-9.74 -0.989,-11.21 -4.364,-11.21 -0.515,0 -1.308,0.14 -1.8,0.33 1.898,2.35 2.652,5.45 2.652,10.89 l -0.031,2.51 -0.024,2.02 c 0,2.23 0.231,3.88 0.41,5.21 l 0.098,0.75 -0.531,0.07 c -1.578,0.22 -4.512,0.62 -6.754,0.62 -4.805,0 -8.066,-0.44 -10.43,-2.66 -1.558,1.26 -3.16,3.42 -3.16,4.8 0,2.03 1.266,2.19 2.922,2.19 0.84,0 1.621,-0.12 2.703,-0.26 2.067,-0.3 5.184,-0.76 11.586,-0.76 h 0.398 l -0.125,0.39 c -1.625,4.65 -6.082,11.41 -13.234,20.1 0.645,2.32 1.274,3.85 3.524,3.85 z m -26.504,133 c -0.711,2.96 -2.227,6 -4.161,8.29 -1.757,2.08 -4.667,4.54 -8.582,4.54 -1.793,0 -4.793,-0.83 -6.699,-1.64 -0.719,1.3 -2.109,4.43 -2.109,5.84 0,1.45 2.453,2.92 7.14,2.92 10.321,0 16.489,-4.66 16.489,-12.48 0,-2.75 -1.09,-5.25 -2.078,-7.47 z m 4.632,10.17 c -0.371,2.21 -1.21,4.21 -2.488,5.92 0.063,2.03 0.895,3.96 4.145,2.37 -1.758,-1.8 -0.399,-4.99 -0.399,-4.99 0,0 3.598,1.68 2.856,4.05 5.336,-1.28 1.5,-8.45 -4.114,-7.35 z m 20.082,-68.99 c 0.27,2.23 0.426,4.55 0.426,6.91 0,1.29 0.012,2.79 -0.144,4.48 19.926,0.29 37.406,14.64 37.406,31.16 0,8.4 -5.477,14.74 -8.574,18.53 0.699,0.14 1.398,0.31 2.101,0.48 2.918,-2.54 11.203,-11.56 11.203,-22.95 0,-19.81 -19.8,-38.2 -42.418,-38.61"
         style="fill:#231f20;fill-opacity:1;fill-rule:nonzero;stroke:none"
         id="path148"
         inkscape:connector-curvature="0" /></g></g></svg>