<?xml version="1.0" encoding="UTF-8" standalone="no"?>
<!-- Created with Inkscape (http://www.inkscape.org/) -->

<svg
   xmlns:dc="http://purl.org/dc/elements/1.1/"
   xmlns:cc="http://creativecommons.org/ns#"
   xmlns:rdf="http://www.w3.org/1999/02/22-rdf-syntax-ns#"
   xmlns:svg="http://www.w3.org/2000/svg"
   xmlns="http://www.w3.org/2000/svg"
   xmlns:sodipodi="http://sodipodi.sourceforge.net/DTD/sodipodi-0.dtd"
   xmlns:inkscape="http://www.inkscape.org/namespaces/inkscape"
   version="1.1"
   id="svg2"
   xml:space="preserve"
   width="218.89333"
   height="326.98666"
   viewBox="0 0 218.89333 326.98666"
   sodipodi:docname="logo_clevercity.svg"
   inkscape:version="0.92.3 (2405546, 2018-03-11)"><metadata
     id="metadata8"><rdf:RDF><cc:Work
         rdf:about=""><dc:format>image/svg+xml</dc:format><dc:type
           rdf:resource="http://purl.org/dc/dcmitype/StillImage" /><dc:title></dc:title></cc:Work></rdf:RDF></metadata><defs
     id="defs6"><clipPath
       clipPathUnits="userSpaceOnUse"
       id="clipPath20"><path
         d="M 0,0 H 1642 V 2452 H 0 Z"
         id="path18"
         inkscape:connector-curvature="0" /></clipPath><clipPath
       clipPathUnits="userSpaceOnUse"
       id="clipPath26"><path
         d="m 1641.69,1242.7 h -43.62 v 452.66 l -28.48,150.24 -36.46,-152.18 -103.97,758.95 -109.28,-758.95 -36.47,152.18 -28.48,-150.24 V 1242.7 h -45.18 l 3.39,-564.149 H 1033.99 V 604.059 L 977.988,565.23 H 875.172 v 302.86 c -80.059,111.871 -193.91,127.34 -250.754,127.34 -21.727,0 -35.117,-2.258 -35.117,-2.258 V 633.539 H 530.906 V 1076.17 C 218.02,1065.82 46.5742,953.27 0,917.781 V 0 h 1641.69 z m -173.94,-12.85 h -77.68 v 230.02 c 0,209.82 77.68,208.3 77.68,0 z"
         id="path24"
         inkscape:connector-curvature="0" /></clipPath><linearGradient
       x1="0"
       y1="0"
       x2="1"
       y2="0"
       gradientUnits="userSpaceOnUse"
       gradientTransform="matrix(1368.42,1894.74,1894.74,-1368.42,443.11,-64.1298)"
       spreadMethod="pad"
       id="linearGradient32"><stop
         style="stop-opacity:1;stop-color:#99d65a"
         offset="0"
         id="stop28" /><stop
         style="stop-opacity:1;stop-color:#3683a4"
         offset="1"
         id="stop30" /></linearGradient><clipPath
       clipPathUnits="userSpaceOnUse"
       id="clipPath42"><path
         d="m 191.688,1440.27 c -4.942,-2.72 -12.524,-4.94 -22.762,-6.66 -10.238,-1.72 -21.281,-2.59 -33.121,-2.59 -19.735,0 -36.9964,3.39 -51.805,10.18 -14.8008,6.78 -27.1445,16.09 -37.0039,27.93 -9.8672,11.85 -17.3398,25.84 -22.3867,42.01 -5.0625,16.15 -7.5938,33.73 -7.5938,52.74 0,18.73 2.5313,36.25 7.5938,52.54 5.0469,16.28 12.4453,30.34 22.1953,42.18 9.7539,11.84 21.9609,21.15 36.6445,27.94 14.6641,6.78 31.6408,10.18 50.8748,10.18 13.321,0 24.985,-1.3 34.973,-3.88 9.988,-2.6 17.449,-4.88 22.391,-6.85 l -2.59,-42.56 c -4.942,2.46 -11.289,5.43 -19.059,8.88 -7.773,3.46 -17.699,5.18 -29.789,5.18 -9.875,0 -19.18,-1.72 -27.945,-5.18 -8.758,-3.45 -16.4612,-8.94 -23.1292,-16.47 -6.6602,-7.52 -11.957,-17.2 -15.9102,-29.05 -3.9492,-11.84 -5.9179,-26.15 -5.9179,-42.91 0,-16.79 1.9687,-31.1 5.9179,-42.93 3.9532,-11.85 9.25,-21.53 15.9102,-29.06 6.668,-7.53 14.3712,-13.01 23.1292,-16.46 8.765,-3.46 18.07,-5.19 27.945,-5.19 11.598,0 21.277,1.24 29.047,3.71 7.769,2.46 14.371,5.67 19.801,9.62 z m 41.82,252.75 h 47.371 v -258.3 h -47.371 z m 140.617,-37.75 h -57.73 v 37.75 h 162.453 v -37.75 h -57.36 v -220.55 h -47.363 z m 191.68,-116.94 -76.231,154.69 h 51.074 l 50.321,-103.25 47.367,103.25 h 51.074 l -76.23,-155.8 v -102.5 h -47.375 z"
         id="path40"
         inkscape:connector-curvature="0" /></clipPath><linearGradient
       x1="0"
       y1="0"
       x2="1"
       y2="0"
       gradientUnits="userSpaceOnUse"
       gradientTransform="matrix(1368.42,1894.74,1894.74,-1368.42,-395.874,541.8)"
       spreadMethod="pad"
       id="linearGradient48"><stop
         style="stop-opacity:1;stop-color:#99d65a"
         offset="0"
         id="stop44" /><stop
         style="stop-opacity:1;stop-color:#3683a4"
         offset="1"
         id="stop46" /></linearGradient><clipPath
       clipPathUnits="userSpaceOnUse"
       id="clipPath58"><path
         d="m 191.688,1810.33 c -4.942,-2.72 -12.524,-4.94 -22.762,-6.66 -10.238,-1.72 -21.281,-2.59 -33.121,-2.59 -19.735,0 -36.9964,3.38 -51.805,10.18 -14.8008,6.78 -27.1445,16.09 -37.0039,27.93 -9.8672,11.85 -17.3398,25.84 -22.3867,42.01 -5.0625,16.15 -7.5938,33.73 -7.5938,52.73 0,18.74 2.5313,36.26 7.5938,52.55 5.0469,16.28 12.4453,30.34 22.1953,42.18 9.7539,11.84 21.9609,21.15 36.6445,27.94 14.6641,6.78 31.6408,10.18 50.8748,10.18 13.321,0 24.985,-1.3 34.973,-3.89 9.988,-2.59 17.449,-4.87 22.391,-6.84 l -2.59,-42.56 c -4.942,2.46 -11.289,5.42 -19.059,8.87 -7.773,3.46 -17.699,5.19 -29.789,5.19 -9.875,0 -19.18,-1.73 -27.945,-5.19 -8.758,-3.45 -16.4612,-8.93 -23.1292,-16.47 -6.6602,-7.51 -11.957,-17.19 -15.9102,-29.04 -3.9492,-11.84 -5.9179,-26.15 -5.9179,-42.92 0,-16.79 1.9687,-31.09 5.9179,-42.93 3.9532,-11.84 9.25,-21.52 15.9102,-29.05 6.668,-7.53 14.3712,-13.01 23.1292,-16.47 8.765,-3.45 18.07,-5.18 27.945,-5.18 11.598,0 21.277,1.24 29.047,3.71 7.769,2.46 14.371,5.67 19.801,9.62 z m 39.23,252.75 h 47.359 v -220.56 h 85.121 v -37.74 h -132.48 z m 166.508,0 h 135.812 v -37.75 h -88.441 v -68.83 h 83.633 v -37.74 h -83.633 v -76.24 h 92.152 v -37.74 H 397.426 Z m 160.609,0 h 51.07 l 52.172,-199.1 h 0.739 l 53.664,199.1 h 48.847 l -78.82,-258.3 h -49.961 z m 236.832,0 H 930.68 v -37.75 h -88.446 v -68.83 h 83.633 v -37.74 h -83.633 v -76.24 h 92.141 v -37.74 H 794.867 Z m 182.809,0 h 80.664 c 11.35,0 21.78,-1.37 31.28,-4.07 9.49,-2.72 17.63,-6.85 24.42,-12.4 6.78,-5.55 12.03,-12.59 15.73,-21.09 3.7,-8.51 5.55,-18.69 5.55,-30.53 0,-17.03 -4.69,-30.84 -14.07,-41.45 -9.37,-10.61 -21.33,-17.02 -35.89,-19.24 v -1.12 c 2.47,-0.49 4.93,-1.17 7.4,-2.03 2.46,-0.86 4.94,-2.35 7.4,-4.44 2.47,-2.1 4.87,-5.06 7.22,-8.88 2.34,-3.83 4.5,-8.7 6.48,-14.62 l 33.67,-98.43 h -50.33 l -25.53,84 c -3.21,10.36 -7.83,17.45 -13.88,21.27 -6.05,3.83 -13.38,5.75 -22.02,5.75 h -10.73 v -111.02 h -47.364 z m 66.614,-112.5 c 12.58,0 22.75,3.2 30.53,9.62 7.77,6.41 11.64,16.28 11.64,29.61 0,14.8 -3.69,24.65 -11.09,29.6 -7.4,4.93 -17.76,7.4 -31.08,7.4 h -19.25 v -76.23 z"
         id="path56"
         inkscape:connector-curvature="0" /></clipPath><linearGradient
       x1="0"
       y1="0"
       x2="1"
       y2="0"
       gradientUnits="userSpaceOnUse"
       gradientTransform="matrix(1368.42,1894.74,1894.74,-1368.42,-395.932,541.85)"
       spreadMethod="pad"
       id="linearGradient64"><stop
         style="stop-opacity:1;stop-color:#99d65a"
         offset="0"
         id="stop60" /><stop
         style="stop-opacity:1;stop-color:#3683a4"
         offset="1"
         id="stop62" /></linearGradient><clipPath
       clipPathUnits="userSpaceOnUse"
       id="clipPath74"><path
         d="m 72.5313,2433.13 v -167.26 c 0,-21.47 3.3281,-36.33 9.9882,-44.6 6.6602,-8.26 16.8985,-12.39 30.7185,-12.39 13.559,0 23.68,4.13 30.34,12.39 6.66,8.27 9.992,23.13 9.992,44.6 v 167.26 h 47.368 v -167.26 c 0,-17.03 -2.282,-31.52 -6.852,-43.49 -4.555,-11.96 -10.859,-21.77 -18.867,-29.42 -8.024,-7.65 -17.328,-13.2 -27.938,-16.65 -10.609,-3.45 -21.965,-5.18 -34.043,-5.18 -12.34,0 -23.8083,1.73 -34.4177,5.18 -10.6133,3.45 -19.918,9 -27.9414,16.65 -8.0195,7.65 -14.3125,17.46 -18.8711,29.42 -4.5664,11.97 -6.8476,26.46 -6.8476,43.49 v 167.26 z m 178.7307,0 h 47.367 v -220.55 h 85.109 v -37.75 H 251.262 Z m 370.789,-42.93 h -0.742 l -64.762,-215.37 h -33.664 l -61.805,215.37 h -0.742 v -215.37 h -42.93 v 258.3 h 70.684 l 53.289,-192.8 h 0.738 l 54.403,192.8 h 68.46 v -258.3 h -42.929 z m 279.39,19.99 h 0.739 v -152.1 H 819.656 Z M 799.668,2259.94 v -23.31 H 902.18 v -61.8 h 22.937 v 61.8 h 29.235 v 21.46 h -29.235 v 175.04 h -30.336 z"
         id="path72"
         inkscape:connector-curvature="0" /></clipPath><linearGradient
       x1="0"
       y1="0"
       x2="1"
       y2="0"
       gradientUnits="userSpaceOnUse"
       gradientTransform="matrix(1368.42,1894.74,1894.74,-1368.42,-659.851,732.45)"
       spreadMethod="pad"
       id="linearGradient80"><stop
         style="stop-opacity:1;stop-color:#99d65a"
         offset="0"
         id="stop76" /><stop
         style="stop-opacity:1;stop-color:#3683a4"
         offset="1"
         id="stop78" /></linearGradient></defs><sodipodi:namedview
     pagecolor="#ffffff"
     bordercolor="#666666"
     borderopacity="1"
     objecttolerance="10"
     gridtolerance="10"
     guidetolerance="10"
     inkscape:pageopacity="0"
     inkscape:pageshadow="2"
     inkscape:window-width="2394"
     inkscape:window-height="1732"
     id="namedview4"
     showgrid="false"
     inkscape:zoom="2.0413946"
     inkscape:cx="118.11527"
     inkscape:cy="152.55751"
     inkscape:window-x="0"
     inkscape:window-y="65"
     inkscape:window-maximized="0"
     inkscape:current-layer="g10" /><g
     id="g10"
     inkscape:groupmode="layer"
     inkscape:label="ink_ext_XXXXXX"
     transform="matrix(1.3333333,0,0,-1.3333333,0,326.98667)"><g
       id="g12"
       transform="scale(0.1)"><g
         id="g14"><g
           id="g16"
           clip-path="url(#clipPath20)"><g
             id="g22"
             clip-path="url(#clipPath26)"><path
               d="m 0,0 v 919 h 1 v 1 h 1 v 1 h 2 v 1 h 1 v 1 h 2 v 1 h 1 v 1 h 1 v 1 h 2 v 1 h 1 v 1 h 2 v 1 h 1 v 1 h 2 v 1 h 1 v 1 h 1 v 1 h 2 v 1 h 1 v 1 h 2 v 1 h 1 v 1 h 2 v 1 h 2 v 1 h 1 v 1 h 2 v 1 h 1 v 1 h 2 v 1 h 1 v 1 h 2 v 1 h 2 v 1 h 1 v 1 h 2 v 1 h 2 v 1 h 1 v 1 h 2 v 1 h 2 v 1 h 1 v 1 h 2 v 1 h 2 v 1 h 1 v 1 h 2 v 1 h 2 v 1 h 2 v 1 h 2 v 1 h 1 v 1 h 2 v 1 h 2 v 1 h 2 v 1 h 2 v 1 h 1 v 1 h 2 v 1 h 2 v 1 h 2 v 1 h 2 v 1 h 2 v 1 h 2 v 1 h 2 v 1 h 2 v 1 h 2 v 1 h 2 v 1 h 2 v 1 h 2 v 1 h 2 v 1 h 2 v 1 h 2 v 1 h 2 v 1 h 2 v 1 h 2 v 1 h 3 v 1 h 2 v 1 h 2 v 1 h 2 v 1 h 2 v 1 h 3 v 1 h 2 v 1 h 2 v 1 h 2 v 1 h 2 v 1 h 3 v 1 h 2 v 1 h 3 v 1 h 2 v 1 h 3 v 1 h 2 v 1 h 2 v 1 h 3 v 1 h 2 v 1 h 3 v 1 h 2 v 1 h 3 v 1 h 2 v 1 h 3 v 1 h 2 v 1 h 3 v 1 h 3 v 1 h 3 v 1 h 3 v 1 h 2 v 1 h 3 v 1 h 3 v 1 h 3 v 1 h 2 v 1 h 3 v 1 h 3 v 1 h 3 v 1 h 3 v 1 h 3 v 1 h 3 v 1 h 4 v 1 h 3 v 1 h 3 v 1 h 3 v 1 h 3 v 1 h 3 v 1 h 3 v 1 h 4 v 1 h 3 v 1 h 4 v 1 h 4 v 1 h 3 v 1 h 4 v 1 h 4 v 1 h 3 v 1 h 4 v 1 h 4 v 1 h 3 v 1 h 4 v 1 h 4 v 1 h 5 v 1 h 4 v 1 h 5 v 1 h 4 v 1 h 4 v 1 h 5 v 1 h 4 v 1 h 4 v 1 h 5 v 1 h 5 v 1 h 6 v 1 h 5 v 1 h 5 v 1 h 6 v 1 h 5 v 1 h 6 v 1 h 5 v 1 h 6 v 1 h 7 v 1 h 7 v 1 h 7 v 1 h 7 v 1 h 8 v 1 h 7 v 1 h 7 v 1 h 11 v 1 h 10 v 1 h 10 v 1 h 10 v 1 h 11 v 1 h 15 v 1 h 17 v 1 h 20 v 1 h 6 V 634 h 58 v 360 h 7 v 1 h 12 v 1 h 32 v -1 h 14 v -1 h 10 v -1 h 7 v -1 h 7 v -1 h 6 v -1 h 5 v -1 h 5 v -1 h 4 v -1 h 4 v -1 h 5 v -1 h 3 v -1 h 4 v -1 h 3 v -1 h 3 v -1 h 4 v -1 h 3 v -1 h 3 v -1 h 2 v -1 h 3 v -1 h 3 v -1 h 3 v -1 h 2 v -1 h 3 v -1 h 2 v -1 h 2 v -1 h 3 v -1 h 2 v -1 h 2 v -1 h 2 v -1 h 2 v -1 h 2 v -1 h 2 v -1 h 2 v -1 h 2 v -1 h 2 v -1 h 2 v -1 h 2 v -1 h 2 v -1 h 2 v -1 h 1 v -1 h 2 v -1 h 2 v -1 h 1 v -1 h 2 v -1 h 2 v -1 h 1 v -1 h 2 v -1 h 2 v -1 h 1 v -1 h 2 v -1 h 1 v -1 h 1 v -1 h 2 v -1 h 1 v -1 h 2 v -1 h 1 v -1 h 2 v -1 h 1 v -1 h 2 v -1 h 1 v -1 h 1 v -1 h 1 v -1 h 2 v -1 h 1 v -1 h 1 v -1 h 1 v -1 h 2 v -1 h 1 v -1 h 1 v -1 h 1 v -1 h 1 v -1 h 2 v -1 h 1 v -1 h 1 v -1 h 1 v -1 h 1 v -1 h 1 v -1 h 1 v -1 h 1 v -1 h 1 v -1 h 1 v -1 h 2 v -1 h 1 v -1 h 1 v -1 h 1 v -1 h 1 v -1 h 1 v -1 h 1 v -1 h 1 v -1 h 1 v -1 h 1 v -1 h 1 v -1 h 1 v -2 h 1 v -1 h 1 v -1 h 1 v -1 h 1 v -1 h 1 v -1 h 1 v -1 h 1 v -1 h 1 v -1 h 1 v -1 h 1 v -2 h 1 v -1 h 1 v -1 h 1 v -1 h 1 v -1 h 1 v -2 h 1 v -1 h 1 v -1 h 1 v -1 h 1 v -2 h 1 v -1 h 1 v -1 h 1 v -1 h 1 v -2 h 1 v -1 h 1 v -1 h 1 v -2 h 1 v -1 h 1 V 566 h 103 v 1 h 1 v 1 h 1 v 1 h 2 v 1 h 1 v 1 h 2 v 1 h 1 v 1 h 2 v 1 h 1 v 1 h 2 v 1 h 1 v 1 h 1 v 1 h 2 v 1 h 1 v 1 h 2 v 1 h 1 v 1 h 2 v 1 h 1 v 1 h 2 v 1 h 1 v 1 h 1 v 1 h 2 v 1 h 1 v 1 h 2 v 1 h 1 v 1 h 2 v 1 h 1 v 1 h 2 v 1 h 1 v 1 h 1 v 1 h 2 v 1 h 1 v 1 h 2 v 1 h 1 v 1 h 2 v 1 h 1 v 1 h 2 v 1 h 1 v 1 h 1 v 75 h 180 v 23 h -1 v 166 h -1 v 167 h -1 v 166 h -1 v 42 h 45 v 453 h 1 v 5 h 1 v 6 h 1 v 5 h 1 v 5 h 1 v 6 h 1 v 5 h 1 v 5 h 1 v 5 h 1 v 6 h 1 v 5 h 1 v 5 h 1 v 6 h 1 v 5 h 1 v 5 h 1 v 5 h 1 v 6 h 1 v 5 h 1 v 5 h 1 v 5 h 1 v 6 h 1 v 5 h 1 v 5 h 1 v 6 h 1 v 5 h 1 v 5 h 1 v 5 h 1 v 6 h 1 v 5 h 1 v 2 h 1 v -2 h 1 v -5 h 1 v -4 h 1 v -4 h 1 v -4 h 1 v -4 h 1 v -4 h 1 v -5 h 1 v -4 h 1 v -4 h 1 v -4 h 1 v -4 h 1 v -4 h 1 v -5 h 1 v -4 h 1 v -4 h 1 v -4 h 1 v -4 h 1 v -4 h 1 v -5 h 1 v -4 h 1 v -4 h 1 v -4 h 1 v -4 h 1 v -5 h 1 v -4 h 1 v -4 h 1 v -4 h 1 v -4 h 1 v -4 h 1 v -5 h 1 v -4 h 1 v -4 h 1 v -4 h 1 v -4 h 1 v -4 h 1 v 4 h 1 v 7 h 1 v 7 h 1 v 7 h 1 v 6 h 1 v 7 h 1 v 7 h 1 v 7 h 1 v 7 h 1 v 7 h 1 v 7 h 1 v 7 h 1 v 7 h 1 v 7 h 1 v 7 h 1 v 7 h 1 v 7 h 1 v 7 h 1 v 7 h 1 v 7 h 1 v 7 h 1 v 7 h 1 v 6 h 1 v 7 h 1 v 7 h 1 v 7 h 1 v 7 h 1 v 7 h 1 v 7 h 1 v 7 h 1 v 7 h 1 v 7 h 1 v 7 h 1 v 7 h 1 v 7 h 1 v 7 h 1 v 7 h 1 v 7 h 1 v 7 h 1 v 7 h 1 v 6 h 1 v 7 h 1 v 7 h 1 v 7 h 1 v 7 h 1 v 7 h 1 v 7 h 1 v 7 h 1 v 7 h 1 v 7 h 1 v 7 h 1 v 7 h 1 v 7 h 1 v 7 h 1 v 7 h 1 v 7 h 1 v 7 h 1 v 7 h 1 v 6 h 1 v 7 h 1 v 7 h 1 v 7 h 1 v 7 h 1 v 7 h 1 v 7 h 1 v 7 h 1 v 7 h 1 v 7 h 1 v 7 h 1 v 7 h 1 v 7 h 1 v 7 h 1 v 7 h 1 v 7 h 1 v 7 h 1 v 7 h 1 v 7 h 1 v 6 h 1 v 7 h 1 v 7 h 1 v 7 h 1 v 7 h 1 v 7 h 1 v 7 h 1 v 7 h 1 v 7 h 1 v 7 h 1 v 7 h 1 v 7 h 1 v 7 h 1 v 7 h 1 v 7 h 1 v 7 h 1 v 7 h 1 v 7 h 1 v 6 h 1 v 7 h 1 v 7 h 1 v 7 h 1 v 7 h 1 v 7 h 1 v 7 h 1 v 7 h 1 v 7 h 1 v 7 h 1 v 7 h 1 v 7 h 1 v 7 h 1 v 7 h 2 v -5 h 1 v -8 h 1 v -7 h 1 v -7 h 1 v -7 h 1 v -8 h 1 v -7 h 1 v -7 h 1 v -8 h 1 v -7 h 1 v -7 h 1 v -8 h 1 v -7 h 1 v -7 h 1 v -7 h 1 v -8 h 1 v -7 h 1 v -7 h 1 v -8 h 1 v -7 h 1 v -7 h 1 v -8 h 1 v -7 h 1 v -7 h 1 v -7 h 1 v -8 h 1 v -7 h 1 v -7 h 1 v -8 h 1 v -7 h 1 v -7 h 1 v -8 h 1 v -7 h 1 v -7 h 1 v -7 h 1 v -8 h 1 v -7 h 1 v -7 h 1 v -8 h 1 v -7 h 1 v -7 h 1 v -8 h 1 v -7 h 1 v -7 h 1 v -7 h 1 v -8 h 1 v -7 h 1 v -7 h 1 v -8 h 1 v -7 h 1 v -7 h 1 v -8 h 1 v -7 h 1 v -7 h 1 v -7 h 1 v -8 h 1 v -7 h 1 v -7 h 1 v -8 h 1 v -7 h 1 v -7 h 1 v -8 h 1 v -7 h 1 v -7 h 1 v -7 h 1 v -8 h 1 v -7 h 1 v -7 h 1 v -8 h 1 v -7 h 1 v -7 h 1 v -8 h 1 v -7 h 1 v -7 h 1 v -7 h 1 v -8 h 1 v -7 h 1 v -7 h 1 v -8 h 1 v -7 h 1 v -7 h 1 v -8 h 1 v -7 h 1 v -7 h 1 v -7 h 1 v -8 h 1 v -7 h 1 v -7 h 1 v -8 h 1 v -7 h 1 v -7 h 1 v -8 h 1 v -7 h 1 v -7 h 1 v -7 h 1 v -8 h 1 v -7 h 1 v -7 h 1 v -8 h 1 v -7 h 1 v -7 h 1 v -8 h 1 v -7 h 1 v -4 h 1 v 4 h 1 v 4 h 1 v 4 h 1 v 4 h 1 v 4 h 1 v 5 h 1 v 4 h 1 v 4 h 1 v 4 h 1 v 4 h 1 v 4 h 1 v 5 h 1 v 4 h 1 v 4 h 1 v 4 h 1 v 4 h 1 v 5 h 1 v 4 h 1 v 4 h 1 v 4 h 1 v 4 h 1 v 4 h 1 v 5 h 1 v 4 h 1 v 4 h 1 v 4 h 1 v 4 h 1 v 4 h 1 v 5 h 1 v 4 h 1 v 4 h 1 v 4 h 1 v 4 h 1 v 4 h 1 v 5 h 1 v 2 h 1 v -2 h 1 v -5 h 1 v -6 h 1 v -5 h 1 v -5 h 1 v -5 h 1 v -6 h 1 v -5 h 1 v -5 h 1 v -6 h 1 v -5 h 1 v -5 h 1 v -5 h 1 v -6 h 1 v -5 h 1 v -5 h 1 v -5 h 1 v -6 h 1 v -5 h 1 v -5 h 1 v -6 h 1 v -5 h 1 v -5 h 1 v -5 h 1 v -6 h 1 v -5 h 1 v -5 h 1 v -6 h 1 v -5 h 1 v -453 h 43 V 0 Z m 1391,1231 v -1 h 76 v 262 h -1 v 15 h -1 v 13 h -1 v 11 h -1 v 7 h -1 v 7 h -1 v 7 h -1 v 5 h -1 v 5 h -1 v 4 h -1 v 5 h -1 v 4 h -1 v 4 h -1 v 2 h -1 v 3 h -1 v 3 h -1 v 3 h -1 v 3 h -1 v 2 h -1 v 2 h -1 v 2 h -1 v 2 h -1 v 2 h -1 v 2 h -1 v 1 h -1 v 1 h -1 v 2 h -1 v 1 h -1 v 1 h -1 v 1 h -1 v 1 h -1 v 1 h -3 v 1 h -3 v 1 h -3 v -1 h -3 v -1 h -2 v -1 h -1 v -1 h -1 v -1 h -1 v -1 h -1 v -1 h -1 v -1 h -1 v -1 h -1 v -2 h -1 v -2 h -1 v -1 h -1 v -2 h -1 v -2 h -1 v -2 h -1 v -2 h -1 v -3 h -1 v -3 h -1 v -3 h -1 v -3 h -1 v -3 h -1 v -3 h -1 v -4 h -1 v -5 h -1 v -4 h -1 v -4 h -1 v -6 h -1 v -7 h -1 v -7 h -1 v -7 h -1 v -9 h -1 v -13 h -1 v -13 h -1 v -266"
               style="fill:url(#linearGradient32);fill-opacity:1;fill-rule:nonzero;stroke:none"
               id="path34"
               inkscape:connector-curvature="0" /></g></g></g><g
         id="g36"><g
           id="g38"
           clip-path="url(#clipPath42)"><path
             d="m 191.688,1440.27 c -4.942,-2.72 -12.524,-4.94 -22.762,-6.66 -10.238,-1.72 -21.281,-2.59 -33.121,-2.59 -19.735,0 -36.9964,3.39 -51.805,10.18 -14.8008,6.78 -27.1445,16.09 -37.0039,27.93 -9.8672,11.85 -17.3398,25.84 -22.3867,42.01 -5.0625,16.15 -7.5938,33.73 -7.5938,52.74 0,18.73 2.5313,36.25 7.5938,52.54 5.0469,16.28 12.4453,30.34 22.1953,42.18 9.7539,11.84 21.9609,21.15 36.6445,27.94 14.6641,6.78 31.6408,10.18 50.8748,10.18 13.321,0 24.985,-1.3 34.973,-3.88 9.988,-2.6 17.449,-4.88 22.391,-6.85 l -2.59,-42.56 c -4.942,2.46 -11.289,5.43 -19.059,8.88 -7.773,3.46 -17.699,5.18 -29.789,5.18 -9.875,0 -19.18,-1.72 -27.945,-5.18 -8.758,-3.45 -16.4612,-8.94 -23.1292,-16.47 -6.6602,-7.52 -11.957,-17.2 -15.9102,-29.05 -3.9492,-11.84 -5.9179,-26.15 -5.9179,-42.91 0,-16.79 1.9687,-31.1 5.9179,-42.93 3.9532,-11.85 9.25,-21.53 15.9102,-29.06 6.668,-7.53 14.3712,-13.01 23.1292,-16.46 8.765,-3.46 18.07,-5.19 27.945,-5.19 11.598,0 21.277,1.24 29.047,3.71 7.769,2.46 14.371,5.67 19.801,9.62 z m 41.82,252.75 h 47.371 v -258.3 h -47.371 z m 140.617,-37.75 h -57.73 v 37.75 h 162.453 v -37.75 h -57.36 v -220.55 h -47.363 z m 191.68,-116.94 -76.231,154.69 h 51.074 l 50.321,-103.25 47.367,103.25 h 51.074 l -76.23,-155.8 v -102.5 h -47.375 v 103.61"
             style="fill:url(#linearGradient48);fill-opacity:1;fill-rule:nonzero;stroke:none"
             id="path50"
             inkscape:connector-curvature="0" /></g></g><g
         id="g52"><g
           id="g54"
           clip-path="url(#clipPath58)"><path
             d="m 191.688,1810.33 c -4.942,-2.72 -12.524,-4.94 -22.762,-6.66 -10.238,-1.72 -21.281,-2.59 -33.121,-2.59 -19.735,0 -36.9964,3.38 -51.805,10.18 -14.8008,6.78 -27.1445,16.09 -37.0039,27.93 -9.8672,11.85 -17.3398,25.84 -22.3867,42.01 -5.0625,16.15 -7.5938,33.73 -7.5938,52.73 0,18.74 2.5313,36.26 7.5938,52.55 5.0469,16.28 12.4453,30.34 22.1953,42.18 9.7539,11.84 21.9609,21.15 36.6445,27.94 14.6641,6.78 31.6408,10.18 50.8748,10.18 13.321,0 24.985,-1.3 34.973,-3.89 9.988,-2.59 17.449,-4.87 22.391,-6.84 l -2.59,-42.56 c -4.942,2.46 -11.289,5.42 -19.059,8.87 -7.773,3.46 -17.699,5.19 -29.789,5.19 -9.875,0 -19.18,-1.73 -27.945,-5.19 -8.758,-3.45 -16.4612,-8.93 -23.1292,-16.47 -6.6602,-7.51 -11.957,-17.19 -15.9102,-29.04 -3.9492,-11.84 -5.9179,-26.15 -5.9179,-42.92 0,-16.79 1.9687,-31.09 5.9179,-42.93 3.9532,-11.84 9.25,-21.52 15.9102,-29.05 6.668,-7.53 14.3712,-13.01 23.1292,-16.47 8.765,-3.45 18.07,-5.18 27.945,-5.18 11.598,0 21.277,1.24 29.047,3.71 7.769,2.46 14.371,5.67 19.801,9.62 z m 39.23,252.75 h 47.359 v -220.56 h 85.121 v -37.74 h -132.48 z m 166.508,0 h 135.812 v -37.75 h -88.441 v -68.83 h 83.633 v -37.74 h -83.633 v -76.24 h 92.152 v -37.74 H 397.426 Z m 160.609,0 h 51.07 l 52.172,-199.1 h 0.739 l 53.664,199.1 h 48.847 l -78.82,-258.3 h -49.961 z m 236.832,0 H 930.68 v -37.75 h -88.446 v -68.83 h 83.633 v -37.74 h -83.633 v -76.24 h 92.141 v -37.74 H 794.867 Z m 182.809,0 h 80.664 c 11.35,0 21.78,-1.37 31.28,-4.07 9.49,-2.72 17.63,-6.85 24.42,-12.4 6.78,-5.55 12.03,-12.59 15.73,-21.09 3.7,-8.51 5.55,-18.69 5.55,-30.53 0,-17.03 -4.69,-30.84 -14.07,-41.45 -9.37,-10.61 -21.33,-17.02 -35.89,-19.24 v -1.12 c 2.47,-0.49 4.93,-1.17 7.4,-2.03 2.46,-0.86 4.94,-2.35 7.4,-4.44 2.47,-2.1 4.87,-5.06 7.22,-8.88 2.34,-3.83 4.5,-8.7 6.48,-14.62 l 33.67,-98.43 h -50.33 l -25.53,84 c -3.21,10.36 -7.83,17.45 -13.88,21.27 -6.05,3.83 -13.38,5.75 -22.02,5.75 h -10.73 v -111.02 h -47.364 z m 66.614,-112.5 c 12.58,0 22.75,3.2 30.53,9.62 7.77,6.41 11.64,16.28 11.64,29.61 0,14.8 -3.69,24.65 -11.09,29.6 -7.4,4.93 -17.76,7.4 -31.08,7.4 h -19.25 v -76.23 h 19.25"
             style="fill:url(#linearGradient64);fill-opacity:1;fill-rule:nonzero;stroke:none"
             id="path66"
             inkscape:connector-curvature="0" /></g></g><g
         id="g68"><g
           id="g70"
           clip-path="url(#clipPath74)"><path
             d="m 72.5313,2433.13 v -167.26 c 0,-21.47 3.3281,-36.33 9.9882,-44.6 6.6602,-8.26 16.8985,-12.39 30.7185,-12.39 13.559,0 23.68,4.13 30.34,12.39 6.66,8.27 9.992,23.13 9.992,44.6 v 167.26 h 47.368 v -167.26 c 0,-17.03 -2.282,-31.52 -6.852,-43.49 -4.555,-11.96 -10.859,-21.77 -18.867,-29.42 -8.024,-7.65 -17.328,-13.2 -27.938,-16.65 -10.609,-3.45 -21.965,-5.18 -34.043,-5.18 -12.34,0 -23.8083,1.73 -34.4177,5.18 -10.6133,3.45 -19.918,9 -27.9414,16.65 -8.0195,7.65 -14.3125,17.46 -18.8711,29.42 -4.5664,11.97 -6.8476,26.46 -6.8476,43.49 v 167.26 z m 178.7307,0 h 47.367 v -220.55 h 85.109 v -37.75 H 251.262 Z m 370.789,-42.93 h -0.742 l -64.762,-215.37 h -33.664 l -61.805,215.37 h -0.742 v -215.37 h -42.93 v 258.3 h 70.684 l 53.289,-192.8 h 0.738 l 54.403,192.8 h 68.46 v -258.3 h -42.929 z m 279.39,19.99 h 0.739 v -152.1 H 819.656 Z M 799.668,2259.94 v -23.31 H 902.18 v -61.8 h 22.937 v 61.8 h 29.235 v 21.46 h -29.235 v 175.04 h -30.336 l -95.113,-173.19"
             style="fill:url(#linearGradient80);fill-opacity:1;fill-rule:nonzero;stroke:none"
             id="path82"
             inkscape:connector-curvature="0" /></g></g></g></g></svg>