<?xml version="1.0" encoding="UTF-8" standalone="no"?>
<svg
   xmlns:dc="http://purl.org/dc/elements/1.1/"
   xmlns:cc="http://creativecommons.org/ns#"
   xmlns:rdf="http://www.w3.org/1999/02/22-rdf-syntax-ns#"
   xmlns:svg="http://www.w3.org/2000/svg"
   xmlns="http://www.w3.org/2000/svg"
   xmlns:sodipodi="http://sodipodi.sourceforge.net/DTD/sodipodi-0.dtd"
   xmlns:inkscape="http://www.inkscape.org/namespaces/inkscape"
   width="24"
   height="24"
   viewBox="0 0 24 24"
   version="1.1"
   id="svg967"
   sodipodi:docname="prog.svg"
   inkscape:version="0.92.5 (2060ec1f9f, 2020-04-08)">
  <metadata
     id="metadata973">
    <rdf:RDF>
      <cc:Work
         rdf:about="">
        <dc:format>image/svg+xml</dc:format>
        <dc:type
           rdf:resource="http://purl.org/dc/dcmitype/StillImage" />
        <dc:title />
      </cc:Work>
    </rdf:RDF>
  </metadata>
  <defs
     id="defs971" />
  <sodipodi:namedview
     pagecolor="#ffffff"
     bordercolor="#666666"
     borderopacity="1"
     objecttolerance="10"
     gridtolerance="10"
     guidetolerance="10"
     inkscape:pageopacity="0"
     inkscape:pageshadow="2"
     inkscape:window-width="1908"
     inkscape:window-height="1035"
     id="namedview969"
     showgrid="false"
     inkscape:zoom="13.906434"
     inkscape:cx="-6.9912206"
     inkscape:cy="14.788275"
     inkscape:window-x="6"
     inkscape:window-y="39"
     inkscape:window-maximized="0"
     inkscape:current-layer="svg967" />
  <path
     fill="none"
     d="M0 0h24v24H0V0z"
     id="path963" />
  <path
     d="m 5.96,18.5 c -3.9733333,3.666667 -1.9866667,1.833333 0,0 z m 3.97,-5 c -6.62,7 -3.31,3.5 0,0 z M 20,2 H 4 C 2.9,2 2,2.9 2,4 v 16 c 0,1.1 0.9,2 2,2 h 16 c 1.1,0 2,-0.9 2,-2 V 4 C 22,2.9 21.1,2 20,2 Z m 0,18 H 4 V 4 h 16 z"
     id="path965"
     inkscape:connector-curvature="0"
     sodipodi:nodetypes="ccccsssssssssccccc"
     style="fill:#681310;fill-opacity:0.94117647" />
  <path
     inkscape:connector-curvature="0"
     d="M 6,15.5 V 18 h 2.5 l 7.373334,-7.373334 -2.5,-2.4999992 z M 17.806668,8.6933335 c 0.259999,-0.2600001 0.259999,-0.68 0,-0.9400001 l -1.560001,-1.56 c -0.26,-0.26 -0.68,-0.26 -0.94,0 l -1.22,1.22 2.5,2.5 z"
     id="path865"
     style="stroke-width:0.66666669;fill:#681310;fill-opacity:0.94117647" />
  <path
     inkscape:connector-curvature="0"
     style="fill:none;stroke-width:0.66666669"
     d="M 3.9999999,4 H 20 V 20 H 3.9999999 Z"
     id="path867" />
</svg>
