<?xml version="1.0" encoding="UTF-8" standalone="no"?>
<svg
   xmlns:dc="http://purl.org/dc/elements/1.1/"
   xmlns:cc="http://creativecommons.org/ns#"
   xmlns:rdf="http://www.w3.org/1999/02/22-rdf-syntax-ns#"
   xmlns:svg="http://www.w3.org/2000/svg"
   xmlns="http://www.w3.org/2000/svg"
   xmlns:sodipodi="http://sodipodi.sourceforge.net/DTD/sodipodi-0.dtd"
   xmlns:inkscape="http://www.inkscape.org/namespaces/inkscape"
   width="24"
   height="24"
   viewBox="0 0 24 24"
   version="1.1"
   id="svg1772"
   sodipodi:docname="users.svg"
   inkscape:version="0.92.5 (2060ec1f9f, 2020-04-08)">
  <metadata
     id="metadata1778">
    <rdf:RDF>
      <cc:Work
         rdf:about="">
        <dc:format>image/svg+xml</dc:format>
        <dc:type
           rdf:resource="http://purl.org/dc/dcmitype/StillImage" />
      </cc:Work>
    </rdf:RDF>
  </metadata>
  <defs
     id="defs1776" />
  <sodipodi:namedview
     pagecolor="#ffffff"
     bordercolor="#666666"
     borderopacity="1"
     objecttolerance="10"
     gridtolerance="10"
     guidetolerance="10"
     inkscape:pageopacity="0"
     inkscape:pageshadow="2"
     inkscape:window-width="1908"
     inkscape:window-height="1035"
     id="namedview1774"
     showgrid="false"
     inkscape:zoom="27.812867"
     inkscape:cx="7.1393574"
     inkscape:cy="11.757093"
     inkscape:window-x="6"
     inkscape:window-y="39"
     inkscape:window-maximized="0"
     inkscape:current-layer="svg1772"
     showguides="true"
     inkscape:guide-bbox="true" />
  <path
     fill="none"
     d="M0 0h24v24H0V0z"
     id="path1768" />
  <path
     d="M 19,5 V 19 H 5 V 5 H 19 M 19,3 H 5 C 3.89,3 3,3.9 3,5 v 14 c 0,1.1 0.89,2 2,2 h 14 c 1.1,0 2,-0.9 2,-2 V 5 C 21,3.9 20.1,3 19,3 Z"
     id="path1770"
     inkscape:connector-curvature="0"
     sodipodi:nodetypes="cccccsssssssss"
     style="fill:#681310;fill-opacity:0.94117647" />
  <path
     inkscape:connector-curvature="0"
     style="fill:none"
     d="m 15.469301,-2.0582416 h 24 V 21.941758 h -24 z"
     id="path2375" />
  <path
     inkscape:connector-curvature="0"
     d="m 11.972876,11.991169 c 1.484931,0 2.687658,-1.202726 2.687658,-2.6876568 0,-1.4849311 -1.202727,-2.687658 -2.687658,-2.687658 -1.484931,0 -2.6876576,1.2027269 -2.6876576,2.687658 0,1.4849308 1.2027266,2.6876568 2.6876576,2.6876568 z m 0,1.343829 c -1.794011,0 -5.3753157,0.900366 -5.3753157,2.687658 v 1.343829 H 17.348192 v -1.343829 c 0,-1.787292 -3.581304,-2.687658 -5.375316,-2.687658 z"
     id="path2996"
     style="stroke-width:0.67191446;fill:#681310;fill-opacity:0.94117647" />
  <path
     inkscape:connector-curvature="0"
     style="fill:none"
     d="M 4.4671986,-16.368165 H 28.467199 V 7.6318347 H 4.4671986 Z"
     id="path2998" />
</svg>
